<?xml version="1.0" encoding="utf-8"?>
<svg viewBox="417.5029 132.0352 137.0648 136.6296" xmlns="http://www.w3.org/2000/svg">
  <path d="M 324.553 41.031 C 324.54 41.033 324.52 41.036 324.506 41.038 C 324.498 41.035 324.49 41.031 324.48 41.027 C 324.506 41.029 324.526 41.03 324.553 41.031 Z M 319.065 40.857 C 319.448 40.844 319.859 40.844 320.342 40.886 C 320.3 41.015 319.721 41.167 319.03 41.069 C 318.815 40.978 318.867 40.91 319.065 40.857 Z M 318.704 41.126 C 318.366 41.287 318.124 41.438 317.847 41.571 C 317.677 41.578 317.516 41.588 317.391 41.618 C 317.483 41.623 317.589 41.629 317.705 41.635 C 317.605 41.678 317.494 41.719 317.372 41.757 L 317.136 41.711 C 317.199 41.668 317.289 41.638 317.391 41.617 C 316.886 41.579 316.743 41.524 316.635 41.39 C 316.92 41.393 317.985 41.177 318.704 41.126 Z M 315.382 41.174 C 315.257 41.187 315.139 41.202 315.027 41.217 C 315.024 41.186 315.019 41.152 314.999 41.112 C 315.133 41.145 315.256 41.157 315.382 41.174 Z M 368.129 76.477 C 368.3 76.731 368.455 74.85 368.72 75.237 C 368.675 75.65 368.631 76.059 368.588 76.464 C 368.579 76.423 368.579 76.438 368.585 76.49 C 368.374 78.47 368.197 80.395 368.157 82.546 L 368.103 82.742 L 368.156 82.562 C 368.139 83.495 368.146 84.466 368.192 85.511 C 367.937 86.439 368.022 84.844 367.854 84.184 C 368.192 88.951 367.297 90.889 367.327 94.949 L 367.537 95.022 C 366.885 100.679 367.274 107.49 367.003 113.885 L 367.15 113.121 C 367.352 114 367.374 115.421 367.468 116.472 C 367.362 116.633 367.02 115.712 367.106 117.568 C 367.181 117.184 367.259 116.402 367.362 116.633 C 366.816 122.127 366.95 133.719 366.685 142.747 C 366.765 148.849 366.703 155.211 366.637 161.546 C 366.608 164.713 366.58 167.874 366.552 170.992 C 366.548 172.551 366.544 174.099 366.54 175.633 L 366.542 176.617 L 366.547 176.74 L 366.565 176.998 C 366.548 176.787 367.066 177.161 366.947 177.403 L 366.915 177.399 C 366.53 177.194 366.391 177.102 366.279 177.07 C 366.225 177.054 366.181 177.053 366.134 177.061 L 365.077 177.103 C 363.453 177.175 361.816 177.275 359.916 176.979 C 352.932 177.261 346.698 176.499 340.199 177.172 L 340.073 176.924 C 339.103 176.811 338.84 176.983 337.821 177.008 L 337.846 176.938 C 335.439 176.845 332.526 177.096 331.144 176.978 L 331.056 177.257 C 329.625 177.28 330.314 177.041 328.848 177.2 L 328.89 177.06 L 327.181 177.325 C 327.346 176.836 323.145 177.285 322.001 177.064 C 320.15 177.151 316.638 177.363 313.832 177.264 C 313.31 177.012 309.867 177.015 307.674 176.888 C 303.401 176.951 297.296 177.032 291.858 176.943 L 291.956 177.261 L 290.536 177.282 C 290.557 177.213 290.366 177.176 290.58 177.142 C 289.481 176.781 287.304 177.252 286.162 177.029 C 286.879 177.316 287.156 177.074 287.966 177.082 C 289.131 177.233 288.018 177.539 286.445 177.382 L 286.476 177.312 L 285.402 177.479 C 285.282 177.231 284.307 177.116 284.183 176.87 C 279.508 176.928 276.326 177.354 271.503 177.237 C 272 176.961 268.036 177.307 269.006 176.827 C 267.252 176.937 267.796 177.056 268.205 177.208 C 267.721 177.196 267.239 177.184 266.768 177.17 C 266.608 177.172 266.444 177.172 266.284 177.174 C 266.309 177.171 266.322 177.167 266.355 177.165 L 265.6 177.179 C 265.196 177.183 264.789 177.185 264.383 177.188 C 264.328 177.15 264.684 177.094 264.875 177.066 C 260.934 177.343 257.885 176.752 254.35 177.032 C 254.136 177.173 255.186 177.119 255.45 177.187 C 253.983 177.177 252.515 177.166 251.043 177.152 C 250.746 177.136 250.404 177.13 249.992 177.142 C 249.727 177.139 249.463 177.137 249.198 177.134 L 249.719 176.953 C 249.325 177.014 249.012 177.08 248.687 177.129 C 248.447 177.127 248.207 177.124 247.967 177.122 C 247.448 177.117 246.931 177.113 246.412 177.108 C 246.238 176.853 247.94 176.895 248.763 176.768 C 247.552 176.756 244.49 176.83 245.423 177.086 C 245.321 177.093 245.234 177.094 245.14 177.097 C 244.882 177.095 244.623 177.092 244.365 177.09 C 243.648 177.045 243.217 176.904 242.662 176.85 C 242.642 176.904 243.448 176.987 243.434 177.082 C 242.581 177.074 241.736 177.067 240.887 177.059 C 239.221 177.012 237.338 177.008 235.731 176.991 C 235.753 176.921 235.584 176.815 235.794 176.781 C 234.824 176.965 234.39 176.899 233.866 176.797 C 233.604 176.746 233.319 176.686 232.933 176.644 C 232.912 176.623 232.911 176.607 232.913 176.598 C 232.908 176.61 232.896 176.624 232.87 176.641 C 232.853 176.649 232.833 176.649 232.813 176.634 C 232.803 176.627 232.792 176.617 232.781 176.603 L 232.777 176.598 L 232.773 176.466 L 232.765 176.135 L 232.749 175.47 C 232.707 173.692 232.665 171.876 232.623 170.072 C 232.57 167.507 232.533 164.972 232.531 162.589 C 232.603 159.52 232.688 156.527 232.544 153.511 L 232.574 153.496 L 232.416 151.619 C 232.565 150.855 232.508 153.062 232.695 151.712 L 232.388 151.003 C 232.417 150.979 232.439 150.831 232.457 150.623 L 232.588 150.557 C 232.669 149.864 232.604 149.528 232.552 149.023 C 232.604 148.171 232.676 147.698 232.86 149.331 L 232.862 142.037 C 232.877 140.425 232.45 141.095 232.572 139.312 C 232.717 138.949 232.671 139.953 232.848 139.807 C 233.067 136.617 232.685 135.031 232.388 133.215 C 232.396 132.919 232.413 132.662 232.447 132.485 C 232.36 130.634 232.148 127.122 232.247 124.316 C 232.499 123.794 232.496 120.351 232.623 118.158 C 232.56 113.885 232.479 107.78 232.568 102.342 L 232.25 102.44 L 232.229 101.02 C 232.298 101.041 232.335 100.85 232.369 101.064 C 232.73 99.965 232.259 97.788 232.482 96.646 C 232.195 97.363 232.437 97.64 232.429 98.45 C 232.278 99.615 231.972 98.502 232.129 96.929 L 232.199 96.96 L 232.032 95.886 C 232.28 95.766 232.395 94.791 232.641 94.667 C 232.583 89.992 232.157 86.81 232.274 81.987 C 232.55 82.484 232.204 78.52 232.684 79.49 C 232.503 76.593 232.296 79.967 231.957 78.644 C 231.965 77.835 231.833 76.985 232.01 76.84 C 232.125 77.22 232.302 76.182 232.346 76.84 L 232.309 74.905 C 232.346 74.721 232.413 75.146 232.444 75.36 C 232.167 71.419 232.758 68.37 232.478 64.835 C 232.305 64.572 232.429 66.238 232.255 65.981 C 231.903 62.423 232.567 62.837 232.319 59.518 L 232.558 60.205 C 232.393 59.133 232.187 58.664 232.38 56.904 C 232.664 56.596 232.611 58.4 232.743 59.25 C 232.755 58.039 232.681 54.977 232.425 55.91 C 232.333 54.459 232.584 53.932 232.661 53.149 C 232.592 53.123 232.473 54.504 232.342 53.654 C 232.501 51.68 232.495 48.631 232.52 46.218 C 232.59 46.24 232.696 46.071 232.73 46.281 C 232.546 45.311 232.612 44.877 232.714 44.353 C 232.765 44.091 232.825 43.806 232.867 43.42 C 232.888 43.399 232.904 43.398 232.913 43.4 C 232.901 43.395 232.887 43.383 232.87 43.357 C 232.862 43.34 232.862 43.32 232.877 43.3 C 232.884 43.29 232.894 43.279 232.908 43.268 L 232.913 43.264 L 233.045 43.26 L 233.376 43.252 L 234.041 43.236 C 235.819 43.194 237.635 43.152 239.439 43.11 C 243.048 43.035 246.612 42.989 249.75 43.035 C 251.286 42.662 253.526 42.649 255.776 42.567 L 256.015 43.062 L 257.892 42.903 C 258.656 43.052 256.449 42.995 257.799 43.183 L 258.508 42.876 C 258.655 43.053 263.33 42.992 260.18 43.348 L 267.474 43.35 C 269.086 43.365 268.416 42.938 270.199 43.06 C 270.562 43.205 269.558 43.159 269.704 43.336 C 275.057 43.703 275.889 42.378 280.88 42.603 L 280.456 42.669 C 281.306 42.537 282.922 42.555 282.942 42.484 C 282.301 41.985 282.046 42.754 280.523 42.46 C 280.656 42.04 282.421 42.234 282.323 41.915 C 283.491 42.067 284.178 41.828 285.197 41.803 C 286.932 42.066 289.425 41.879 290.734 42.208 C 291.584 42.076 292.534 41.664 294.363 41.647 C 295.672 41.975 294.053 41.961 295.837 42.084 L 296.124 41.84 C 297.586 41.878 297.357 41.946 297.304 42.061 C 298.868 42.072 298.605 41.727 300.566 41.883 L 299.472 42.119 C 300.923 42.026 301.514 42.068 303.534 42.089 C 303.489 42.229 302.679 42.219 302.086 42.179 C 303.183 42.54 303.964 42.023 304.557 42.063 C 304.388 41.957 302.988 41.908 303.673 41.669 C 304.674 41.713 305.808 41.339 306.523 41.627 L 305.428 41.861 C 307.52 41.672 306.546 41.557 308.945 41.652 C 308.815 41.67 308.879 41.731 308.825 41.782 C 310.344 41.47 312.329 41.754 314.572 41.777 L 314.146 41.842 C 315.052 41.76 315.549 41.542 316.037 41.559 C 315.616 41.513 315.382 41.474 315.239 41.435 C 315.43 41.416 315.722 41.399 316.221 41.387 C 316.146 41.619 316.384 41.746 317.069 41.841 C 316.816 41.902 316.514 41.956 316.121 42.001 C 316.693 41.949 317.313 41.91 317.722 41.912 C 317.842 41.922 317.973 41.933 318.109 41.943 C 318.171 41.961 318.194 41.985 318.139 42.022 L 318.2 41.95 C 318.288 41.956 318.365 41.963 318.459 41.969 L 318.223 41.923 L 318.466 41.638 C 319.1 41.628 319.601 41.651 320.079 41.651 C 320.136 41.6 320.11 41.553 320.05 41.508 C 320.133 41.487 320.206 41.461 320.259 41.425 C 320.177 41.444 320.082 41.456 319.986 41.467 C 319.72 41.322 319.205 41.209 320.267 41.094 C 321.924 40.97 321.147 41.487 321.406 41.315 C 323.614 41.167 322.44 40.92 324.358 41.02 C 324.379 41.03 324.392 41.04 324.404 41.05 C 324.234 41.074 324.021 41.101 323.858 41.102 C 325.422 41.231 327.587 41.037 328.034 41.486 C 327.957 41.52 327.897 41.557 327.834 41.591 C 327.784 41.595 327.748 41.601 327.692 41.603 C 327.728 41.602 327.773 41.601 327.815 41.6 C 327.692 41.664 327.54 41.713 327.16 41.688 L 327.185 41.618 C 325.586 41.927 328.173 41.589 328.145 41.864 C 328.5 41.709 330.304 41.758 331.175 41.797 L 330.859 41.514 C 334.178 40.669 330.68 42.074 333.961 41.965 C 336.044 41.775 333.174 41.886 334.451 41.688 C 335.859 41.737 336.383 41.989 338.442 41.867 C 339.015 41.979 340.185 42.13 340.283 42.447 C 341.534 42.319 344.083 42.589 344.793 42.281 C 342.656 42.015 342.661 42.612 340.163 42.2 L 340.864 41.892 C 342.595 41.909 344.811 41.753 346.004 41.866 C 345.762 41.806 345.655 41.726 345.807 41.66 C 348.273 41.544 348.983 41.235 351.381 41.329 C 351.696 41.612 350.293 41.563 349.27 41.587 C 350.816 41.814 350.887 41.605 353.287 41.697 C 353.414 41.944 351.671 41.681 351.394 41.924 L 354.052 41.847 C 354.041 41.862 354.052 41.879 354.052 41.897 C 354.437 41.484 356.078 41.933 357.703 41.81 C 359.428 41.812 360.496 41.701 361.344 41.548 C 362.625 41.54 362.679 41.41 362.692 41.252 C 363.167 41.137 363.655 41.023 364.273 40.927 C 364.846 41.039 365.015 41.144 364.774 41.248 C 363.829 41.064 363.997 41.208 363.667 41.316 C 364.966 41.274 366.51 41.722 365.785 41.889 C 365.911 41.88 366.019 41.873 366.11 41.867 C 366.146 41.858 366.175 41.851 366.199 41.845 C 366.247 41.831 366.274 41.817 366.285 41.802 C 366.307 41.774 366.263 41.746 366.205 41.719 C 366.175 41.705 366.143 41.69 366.116 41.677 C 366.077 41.663 366.002 41.648 365.981 41.634 C 365.954 41.619 365.956 41.605 366.004 41.589 C 366.028 41.584 366.062 41.576 366.109 41.566 C 366.132 41.56 366.161 41.552 366.197 41.542 L 367.474 41.57 C 367.49 41.431 367.266 41.363 367.362 41.287 C 367.572 41.269 367.769 41.247 367.929 41.222 C 367.74 41.251 367.556 41.269 367.378 41.278 C 367.438 41.241 367.571 41.201 367.863 41.15 C 368.069 41.134 368.244 41.125 368.384 41.122 C 368.392 41.543 368.368 41.922 368.357 42.569 C 368.253 42.492 368.036 42.933 368.049 42.346 C 368.009 42.555 367.986 42.792 368 43.004 C 368.013 43.234 368.062 43.347 368.165 43.671 C 368.179 43.561 368.191 43.476 368.199 43.412 C 368.21 43.368 368.219 43.355 368.229 43.34 C 368.248 43.316 368.264 43.332 368.28 43.377 C 368.311 43.506 368.338 43.91 368.369 44.291 C 368.431 45.071 368.511 45.907 368.675 45.249 L 368.482 47.013 C 368.486 46.611 368.346 46.566 368.387 45.972 C 368.066 46.473 368.478 47.415 368.508 48.032 C 368.446 48.654 368.417 50.267 368.293 50.401 C 368.382 50.959 368.311 52.323 368.147 52.578 C 368.21 53.409 368.357 52.645 368.46 52.886 L 368.432 55.708 C 368.254 55.858 367.761 56.094 367.694 55.668 C 367.858 56.737 368.218 56.05 368.201 57.663 C 367.858 56.737 367.935 59.796 367.526 58.454 C 367.273 59.377 367.282 62.015 367.373 63.466 C 367.646 64.366 367.528 61.895 367.809 61.989 C 367.908 66.068 368.68 66.32 368.544 69.313 L 368.623 68.536 C 368.781 70.405 368.746 70.195 368.982 71.284 C 368.644 70.769 368.056 73.408 368.129 76.477 Z" style="transform-origin: 300.45px 109.164px;" transform="matrix(-1, 0, 0, -1, 185.584838867188, 91.186157226563)"/>
</svg>