<?xml version="1.0" encoding="utf-8"?>
<svg viewBox="214.5465 85.4231 140.7733 141.69" xmlns="http://www.w3.org/2000/svg">
  <path d="M 82.435 180.626 L 82.393 180.626 C 82.393 180.622 82.393 180.617 82.393 180.617 C 82.837 180.604 83.216 180.593 83.457 180.586 C 83.242 180.594 82.942 180.606 82.435 180.626 Z M 181.078 172.729 C 181.052 172.675 181.025 172.622 181.012 172.559 C 180.752 171.657 180.891 171.072 181.078 170.741 L 181.078 172.729 Z M 40.371 171.054 C 40.944 167.979 41.15 168.86 41.536 164.529 C 41.589 163.373 40.814 162.805 40.693 161.375 L 41.298 161.34 L 40.664 159.399 L 41.387 158.366 L 41.232 157.025 C 41.197 157.559 40.961 158.161 40.786 158.079 C 40.513 155.984 41.207 152.972 41.517 152.92 L 41.006 147.964 C 41.19 148.047 41.283 148.546 41.385 149.068 C 41.044 147.208 42.084 148.906 41.559 146.655 C 41.422 146.98 41.199 146.479 41.077 146.424 C 41.442 145.215 41.446 142.464 41.292 140.429 L 41.708 140.82 C 41.814 137.144 41.508 133.07 41.516 128.943 C 41.322 130.423 40.6 130.083 40.53 128.873 L 41.169 128.389 C 40.774 127.608 40.927 129.653 40.444 128.049 C 40.518 126.508 41.17 127.013 41.378 127.898 L 41.156 126.024 C 41.347 125.914 41.448 126.353 41.691 126.468 C 41.294 125.699 42.332 123.233 41.643 122.124 L 41.833 122.018 C 41.838 117.893 41.619 116.023 41.587 112.663 C 41.035 112.597 41.158 111.284 40.712 110.282 C 40.888 107.813 41.321 105.072 41.275 102.097 C 41.001 100.006 40.808 101.486 40.481 100.546 C 40.983 100.392 40.936 97.421 41.296 98.962 C 41.215 95.391 41.196 94.401 40.789 89.885 C 40.583 90.375 40.494 90.926 40.322 90.641 C 40.239 89.822 40.533 88.776 40.774 88.894 L 40.826 89.11 C 40.073 84.041 42.29 77.411 41.243 73.374 L 41.295 73.6 L 40.749 69.414 C 40.836 67.488 41.127 70.569 41.437 69.144 C 40.599 64.629 41.559 62.01 41 58.292 C 42.482 55.414 40.896 48.078 41.842 44.193 L 41.493 44.417 C 41.151 43.413 41.693 43.203 41.773 42.463 C 41.502 42.568 41.459 43.552 41.27 42.929 L 41.223 41.82 C 41.216 41.576 41.21 41.589 41.205 41.525 L 41.19 41.364 C 41.173 41.146 41.164 40.917 41.163 40.692 C 41.424 40.691 41.696 40.701 41.955 40.719 C 42.737 40.745 43.522 40.771 44.31 40.798 C 46.118 40.865 47.936 40.958 49.756 41.059 C 53.396 41.261 57.043 41.497 60.635 41.628 C 63.813 41.722 62.439 39.816 66.445 40.652 L 65.308 41.302 C 71.721 40.523 78.422 41.329 84.7 40.667 C 84.326 40.817 84.315 41.012 83.702 41.01 C 85.028 41.482 88.606 41.033 88.628 40.647 C 89.606 40.691 88.855 40.996 89.457 41.192 C 90.787 41.471 92.796 40.589 93.502 41.059 C 93.58 41.109 93.398 41.159 93.194 41.197 C 94.323 41.068 96.845 41.255 96.094 40.762 C 98.45 41.022 100.602 40.519 102.481 40.842 C 103.707 40.233 106.515 41.135 106.904 40.274 C 106.735 41.164 111.035 40.992 112.525 40.573 C 112.026 40.842 113.82 40.852 113.236 41.224 C 114.936 41.212 116.494 41.046 116.198 40.589 C 119.33 41.654 122.494 39.732 124.258 41.097 C 129.309 40.619 133.982 40.295 138.526 40.086 C 138.362 40.974 133.504 40.175 133.699 41.107 C 138.009 40.741 140.495 39.979 144.769 40.194 C 145.876 40.315 144.141 40.579 143.767 40.731 C 148.073 40.365 152.093 40.812 155.924 40.328 C 155.913 40.411 155.5 40.501 155.109 40.569 C 155.864 40.54 156.865 40.7 156.78 40.296 L 156.044 40.405 C 154.916 39.857 158.521 39.264 159.102 38.936 L 159.122 38.936 C 158.118 39.989 162.92 39.193 160.927 40.624 C 161.424 40.548 162.047 40.357 161.933 40.086 C 162.67 40.165 162.904 40.323 162.157 40.63 C 164.862 40.41 163.901 39.981 166.351 39.99 C 166.342 40.186 165.848 40.261 165.594 40.491 C 166.835 40.11 168.081 39.729 170.152 39.894 C 170.047 39.993 170.196 40.117 169.877 40.152 C 171.556 40.106 173.013 39.871 174.503 39.679 C 175.282 39.579 176.072 39.492 176.911 39.453 C 177.331 39.434 177.762 39.426 178.211 39.435 C 178.434 39.444 178.662 39.452 178.895 39.461 C 179.054 39.474 179.213 39.492 179.37 39.515 C 178.537 40.364 180.113 39.794 179.668 40.529 L 180.078 40.434 C 180.119 40.541 180.16 40.664 180.201 40.802 C 180.319 40.611 180.438 40.389 180.556 40.134 C 180.55 40.614 180.68 40.997 180.782 41.5 C 180.807 41.587 180.831 41.839 180.85 42.036 C 180.869 42.241 180.884 42.445 180.892 42.647 C 180.908 43.052 180.897 43.451 180.837 43.847 L 180.535 42.476 L 180.674 45.932 L 180.952 43.976 C 180.993 44.18 181.036 44.329 181.081 44.45 L 181.081 48.327 C 181.045 48.159 180.998 47.995 180.972 47.821 C 180.939 48.349 180.932 48.774 181.081 48.944 L 181.081 52.291 C 180.866 52.202 180.65 52.064 180.564 52.192 C 181.032 52.881 180.884 55.043 181.081 56.532 L 181.081 57.342 C 180.944 57.29 180.812 57.308 180.77 57.376 L 181.081 57.849 L 181.081 58.862 C 180.998 59.039 180.899 59.051 180.725 58.972 C 180.681 60.205 180.893 60.067 181.081 59.926 L 181.081 60.684 C 181.075 60.652 181.069 60.622 181.063 60.582 C 180.974 61.893 181.02 63.164 181.081 64.411 L 181.081 69.363 C 180.43 69.963 180.937 66.882 180.332 67.807 C 180.466 71.866 181.215 76.212 181.041 80.139 L 181.08 79.784 L 181.08 82.522 C 180.994 83.083 180.963 83.664 181.08 84.218 L 181.08 84.253 C 180.969 83.822 180.527 83.688 180.637 83.813 C 180.493 86.129 180.787 88.539 181.08 91.764 L 181.08 93.124 L 180.952 92.883 C 180.714 94.468 180.815 97.058 180.693 98.77 C 180.891 99.148 180.919 99.786 181.08 99.842 L 181.08 100.579 C 180.52 103.245 180.848 105.791 181.08 108.265 L 181.08 113.329 C 181.022 113.693 180.951 114.056 180.853 114.418 C 180.85 113.858 180.619 113.083 180.618 113.529 L 180.864 117.519 C 180.963 117.45 181.028 117.386 181.079 117.319 L 181.079 119.273 C 181.047 119.38 181.016 119.481 180.987 119.568 C 181.017 119.54 181.048 119.537 181.079 119.538 L 181.079 127.96 C 180.872 128.711 180.936 129.043 180.864 129.914 L 180.878 129.798 L 180.599 132.529 L 180.766 131.833 C 180.893 132.02 180.992 132.208 181.079 132.396 L 181.079 137.923 C 181.02 138.011 180.941 138.062 180.827 138.023 C 180.662 138.717 180.477 139.773 180.31 139.472 C 180.789 140.757 179.933 141.618 180.633 143.432 C 180.442 143.513 180.614 144.807 180.134 144.517 C 180.284 146.188 180.467 144.122 180.707 144.263 C 181.361 146.839 179.915 150.318 180.812 154.023 C 180.891 154.704 180.982 155.262 181.08 155.754 L 181.08 164.438 C 181.03 164.534 180.976 164.649 180.917 164.777 C 180.932 165.139 181.001 165.352 181.08 165.523 L 181.08 166.885 C 180.901 166.655 180.705 166.374 180.563 165.984 C 180.688 167.007 180.903 168.022 181.08 169.058 L 181.08 170.37 C 180.863 170.209 180.717 169.325 180.546 168.91 C 180.663 170.216 180.784 172.111 181.08 173.133 L 181.08 174.915 C 180.895 174.797 180.697 174.798 180.494 175.014 C 180.876 175.609 180.927 175.928 181.08 176.326 L 181.08 180.13 C 180.738 180.004 180.297 179.885 179.719 179.776 L 177.368 180.336 L 176.611 179.892 L 178.59 179.864 C 177.468 179.446 176.756 179.816 175.959 180.07 C 175.77 179.834 175.44 179.668 174.974 179.58 L 172.666 180.456 C 172.386 180.097 173.701 179.744 172.152 179.546 C 171.071 179.952 173.189 180.35 171.399 180.617 C 170.274 180.2 170.602 179.861 169.283 180.217 C 169.097 179.981 169.377 179.831 169.9 179.727 C 168.725 180.01 166.791 179.847 166.184 180.334 C 165.012 179.82 162.217 180.468 162.333 179.6 C 161.964 179.808 160.264 180.281 159.184 180.317 C 161.156 179.279 155.144 180.256 155.665 179.143 C 154.206 180.077 150.394 179.558 147.809 180.076 C 147.954 180.002 148.237 179.852 148.465 179.899 C 147.01 179.821 146.587 179.54 145.653 179.364 C 145.489 180.04 143.729 180.259 142.474 180.623 L 141.65 180.623 C 140.634 180.015 143.018 179.826 142.502 179.167 C 142.592 179.792 139.404 179.791 140.01 180.311 C 138.646 179.851 138.835 180.088 138.132 179.449 C 137.893 180.413 136.862 179.612 135.731 180.204 C 133.757 179.729 135.223 179.301 133.055 179.594 C 132.024 179.298 133.952 178.957 133.952 178.957 C 131.744 178.941 132.915 179.669 132.447 180.086 C 129.812 180.292 131.228 179.55 130.331 179.179 C 128.686 179.371 127.424 180.039 126.197 180.01 C 126.105 179.89 125.867 179.847 126.147 179.697 C 124.408 180.275 120.984 179.725 118.957 180.451 C 118.806 180.387 118.73 180.326 118.692 180.271 C 118.799 180.389 118.867 180.507 118.921 180.622 L 117.768 180.622 C 117.97 180.582 118.114 180.515 118.114 180.39 C 117.572 180.45 117.005 180.534 116.437 180.622 L 112.8 180.622 C 113.721 180.492 115.175 180.578 113.742 180.166 L 116.14 180.421 C 114.308 179.367 117.597 180.495 115.913 179.367 C 112.758 179.173 112.384 179.708 109.237 179.513 C 108.528 179.884 109.471 180.063 108.762 180.434 C 104.289 181.101 105.241 178.753 101.952 179.644 C 101.101 180.089 100.771 180.935 98.429 180.488 L 99.227 179.732 C 96.172 179.658 97.483 180.818 94.284 180.31 C 94.853 180.013 96.685 180.06 96.223 179.97 C 94.15 179.373 94.757 180.399 93.164 180.399 L 92.834 179.73 C 89.582 179.835 86 180.319 82.398 180.441 C 82.597 180.242 83.214 180.033 82.372 179.828 C 77.83 180.162 72.675 179.746 68.293 179.349 L 66.619 179.927 C 66.23 179.92 65.897 179.666 66.318 179.554 C 64.61 179.335 66.23 179.92 65.409 180.147 C 64.438 180.187 64.126 179.815 64.741 179.642 C 61.727 180.132 56.157 180.697 52.982 180.078 L 53.601 179.906 C 51.8 179.735 51.137 180.436 50.027 180.624 L 48.996 180.624 C 48.841 180.604 48.695 180.593 48.518 180.552 L 48.958 180.45 C 47.298 180.373 45.584 180.37 43.887 180.377 C 43.17 180.38 42.458 180.384 41.756 180.387 C 41.373 180.388 40.994 180.382 40.651 180.364 C 40.674 179.894 40.717 179.436 40.797 179.058 L 40.828 178.921 L 40.863 178.597 C 40.89 178.378 40.918 178.163 40.944 177.952 C 41.003 177.529 41.073 177.121 41.156 176.729 C 40.328 175.949 41.527 171.4 40.371 171.054 Z" transform="matrix(1, 0, 0, 1, 174.23887634277344, 46.487129211425774)"/>
</svg>