<?xml version="1.0" encoding="utf-8"?>
<svg viewBox="220.6851 149.6473 139.4261 144.4993" xmlns="http://www.w3.org/2000/svg">
  <path d="M 557.379 362.356 L 423.155 361.773 L 557.215 362.131 L 556.474 229.3 L 557.379 362.356 Z M 418.871 263.686 L 419.248 259.102 C 419.773 266.61 419.192 275.959 418.871 284.839 L 418.871 263.686 Z M 418.871 298.508 C 418.888 298.648 418.906 298.764 418.925 298.838 C 418.939 303.694 419.071 309.996 418.871 314.644 L 418.871 298.508 Z M 418.871 366.129 L 418.871 321.22 C 419.022 327.564 418.959 336.773 419.744 332.836 C 419.702 342.558 419.652 353.916 419.602 365.398 C 423.887 365.374 428.191 365.35 432.428 365.326 C 436.906 365.276 441.314 365.197 445.562 365.076 C 447.307 365.623 453.753 365.328 456.093 365.597 C 454.926 365.826 456.714 365.971 458.591 366.129 L 418.871 366.129 Z M 458.916 362.606 C 459.85 362.99 451.775 362.959 447.385 362.972 L 451.249 363.347 L 456.923 362.998 C 468.855 363.404 456.043 364.106 455.457 364.384 C 447.441 364.463 443.2 364.061 438.688 363.667 C 436.432 363.47 434.108 363.275 431.21 363.143 C 429.761 363.077 428.169 363.027 426.37 363 C 425.47 362.993 424.519 362.986 423.509 362.978 C 423.212 362.979 422.907 362.981 422.592 362.982 C 422.489 362.987 422.383 362.992 422.274 362.997 C 422.09 363.191 422.162 363.286 422.277 363.374 C 422.378 363.462 422.526 363.544 422.237 363.712 C 421.821 363.751 421.469 363.799 421.153 363.849 C 421.061 363.422 420.961 363.1 420.899 362.484 C 420.892 362.398 420.885 362.307 420.877 362.212 C 420.871 362.031 420.866 361.841 420.859 361.64 C 420.853 361.237 420.846 360.79 420.838 360.284 C 420.831 359.272 420.838 358.024 420.866 356.425 C 421.449 348.068 420.214 341.385 420.682 331.615 C 421.498 327.524 421.211 342.322 421.758 340.576 L 422.076 336.014 C 422.005 330.922 422.702 323.96 422.138 319.859 L 422.469 319.69 C 422.116 312.552 422.302 300.724 421.737 296.629 C 422.007 285.132 421.916 273.092 421.755 260.906 C 421.67 254.813 421.584 248.683 421.498 242.567 C 421.45 237.187 421.403 231.821 421.355 226.51 L 421.405 226.404 C 421.73 226.485 422.011 226.567 422.247 226.648 C 422.365 226.689 422.472 226.729 422.568 226.77 C 422.679 226.811 422.647 226.851 423.117 226.892 C 437.16 227.127 433.77 226.253 440.212 225.957 C 441.735 226.063 441.146 226.341 441.96 226.504 C 449.16 226.262 439.56 226.125 442.371 225.895 C 449.687 225.873 459.056 225.569 463.74 226.107 L 466.08 224.995 C 463.008 224.676 460.258 224.275 458.396 223.87 L 469.755 223.87 C 472.015 224.155 475.45 224.46 471.815 224.757 C 487.493 225.318 486.034 225.322 493.985 226.513 C 503.407 226.319 500.778 225.498 503.473 225.048 C 513.477 224.576 521.363 225.658 530.04 225.411 C 523.479 226.867 544.547 226.528 554.784 226.498 C 555.582 226.497 556.3 226.497 556.948 226.496 C 557.366 226.493 557.337 226.489 557.459 226.484 C 557.555 226.478 557.646 226.472 557.732 226.466 C 558.081 226.438 558.381 226.395 558.66 226.34 C 558.83 226.902 559.104 226.97 559.324 227.571 C 559.379 227.657 559.431 228.098 559.476 228.521 C 559.522 228.963 559.562 229.495 559.593 230.156 C 559.656 231.477 559.686 233.31 559.662 235.962 C 558.965 242.921 558.736 221.797 557.99 230.977 L 558.285 237.413 C 558.85 241.517 559.578 244.795 559.979 249.714 C 559.988 252.64 560.001 257.03 559.78 257.143 C 559.542 251.402 558.995 253.157 558.681 259.192 C 558.91 261.999 558.968 262.698 559.192 264.046 C 560.758 252.236 559.283 276.456 560.193 284.76 C 561.48 308.995 558.353 297.453 559.032 321.272 C 560.391 313.966 559.742 337.02 560.262 344.803 C 560.227 351.414 559.847 353.814 559.419 358.433 C 559.526 359.742 559.597 362.752 559.726 364.625 C 549.694 363.888 534.102 363.418 519.299 363.198 C 507.355 364.173 532.929 364.041 531.635 364.376 C 532.519 364.65 528.828 364.605 525.961 364.725 C 519.3 364.579 512.51 364.213 512.215 363.661 L 508.12 364.225 C 494.186 364.212 479.275 363.704 462.358 363.589 C 467.214 363.078 469.386 363.015 476.878 363.325 C 489.064 361.411 464.7 363.859 458.916 362.606 Z M 561.129 364.731 L 561.129 366.129 L 559.909 366.129 L 477.482 366.129 C 498.3 365.799 520.328 366.043 540.994 365.454 C 548.164 364.761 553.181 364.847 559.735 364.753 C 559.783 365.417 559.839 365.925 559.909 366.129 C 560.084 365.773 560.259 365.307 560.432 364.742 C 560.665 364.738 560.893 364.735 561.129 364.731 C 560.912 364.714 560.674 364.697 560.451 364.68 C 560.679 363.927 560.905 362.998 561.129 361.909 L 561.129 364.731 Z" transform="matrix(0.9800930023193359, 0, 0, 1.0157480239868164, -189.8474578857422, -77.74819183349611)"/>
</svg>