<svg id="Layer_1" data-name="Layer 1" xmlns="http://www.w3.org/2000/svg" viewBox="0 0 546.68 105.8"><path d="M545.31,21c-1.53-.06-.4-2.46-.57-4.54C545.91,17.3,545.2,18.33,545.31,21Z"/><path d="M540.2,32.42c.07-2.26,1.17-2.44,2-1.71C542,32.61,541.1,33.29,540.2,32.42Z"/><path d="M540.77,21.61v1.71c-.37-.2-.45-1-.85-1.14C540,21.52,540.44,21.7,540.77,21.61Z"/><path d="M531.7,15.36c-.71-.92,0-3.73,1.13-2.85C532.91,14.38,531.73,13.72,531.7,15.36Z"/><path d="M525.74,19.9c0-1.65,1.35-1.36,1.14.58C526.28,20.72,526.13,20.09,525.74,19.9Z"/><path d="M524,4.55c.57-1.74-.36-3,.28-4.55.81.29,1.21,1.38,2,1.71C525.74,3,525.46,4.93,524,4.55Z"/><path d="M520.36,30.14c.3-.53.08-2.1.85-1.7C520.9,29,521.12,30.53,520.36,30.14Z"/><path d="M511.57,37.54c.15-2.35.95-3.41,2.27-3.42C513.74,36.59,512.41,36.59,511.57,37.54Z"/><path d="M512.13,27.3c0-1.24.72-1.22,1.42-1.13C513.33,27.29,512.56,28.21,512.13,27.3Z"/><path d="M511.57,23.32c-.54-.22.18-.73.56-.57C512.67,23,512,23.47,511.57,23.32Z"/><path d="M509.87,30.14v-1.7c.5-.08.59.7,1.13.57C510.93,30,510.51,30.3,509.87,30.14Z"/><path d="M509.87,34.12c.28,1.61.31,2.43-.86,2.28C509.13,35.31,509.11,34,509.87,34.12Z"/><path d="M509,31.85c-.23-.11-.28-.57-.56-.57.05-.46.28-.57.28-1.14.23.11.28.57.56.57C509.24,31.18,509,31.28,509,31.85Z"/><path d="M498,43.22c-.49,1.13-1.36-2.5-.29-1.7A2.59,2.59,0,0,1,498,43.22Z"/><path d="M491.71,25.6v2.27C490.73,28.53,490.4,24.69,491.71,25.6Z"/><path d="M489.73,27.87a6.52,6.52,0,0,1,0-5.69c1.1.71.33,3.9.85,4.55C490.52,27.56,489.73,26.93,489.73,27.87Z"/><path d="M486,27.87a5.62,5.62,0,0,0,.29-2.27c.59-.24.75.38,1.13.57C487.59,27.94,486.86,28,486,27.87Z"/><path d="M485.48,22.18c-.61.52-.66-2.08,0-1.7C485.82,20.67,485.71,22,485.48,22.18Z"/><path d="M480.66,46.07c.08-.77.7-.47,1.13-.57C481.51,46.42,481,46.81,480.66,46.07Z"/><path d="M478.67,44.93h.57c-.06.49.11.54.28.57C479.64,46.6,478.23,46.33,478.67,44.93Z"/><path d="M475,30.71c-.21-2.1.45-2.51,1.41-2.27C476.09,29.5,476.07,31.18,475,30.71Z"/><path d="M476.12,47.78c-.3,1.47-2.1,4.07-2,0A2.22,2.22,0,0,0,476.12,47.78Z"/><path d="M472.72,45.5c.75-.17.73,1.19.85,2.28C472.82,48,472.64,47,472.72,45.5Z"/><path d="M471.87,37l-.52-.28-.33.85c-.42.66-.72.66-1.14,0-.05-1.8.75-1.9.57-4,.67,0,.83,1,1.7.57C472.27,35.5,471.63,35.36,471.87,37Z"/><path d="M471.87,48.35c-.78.41-.57-1.14-1.14-1.14,0-1.25.72-1.22,1.42-1.14A7,7,0,0,1,471.87,48.35Z"/><path d="M470.45,39.81c-.05.46-.28.57-.28,1.14C469.5,40.65,470,38.26,470.45,39.81Z"/><path d="M469.88,44.93c.1,2.1-1.72,2.07-2.26,1.14l.13-.57.15-.57a1.83,1.83,0,0,1,1.7-1.14C469.55,44.45,469.66,44.81,469.88,44.93Z"/><path d="M468.18,27.87c.91-.5.59,1.47,1.14,1.71-.45.43-.43,1.8-1.14,1.7A5.24,5.24,0,0,1,468.18,27.87Z"/><path d="M466.48,43.79c-.13-1.14-.62-2.64.56-2.84C467.5,41.8,467.46,44.19,466.48,43.79Z"/><path d="M452.67,33.38l.2-1c.5.52,1,1,.85,2.84l-.43.67.14,1c-.59,1.81-1.27,2.56-.85,5.12-.48.12-.73-1-.84,0-.9.28-.22-2.61-.86-2.84.57-1.52,1.39-2.53,1.42-5.13Z"/><path d="M448.62,17.63c-.5-.14-.65-1-.57-2.27h.85A6.87,6.87,0,0,1,448.62,17.63Z"/><path d="M447.77,11.94c1,1.47-1.46,1.37,0,0Z"/><path d="M444.08,37.54c-.57-.2-.89.12-.85,1.14-.44-1.43-.71-2.78-1.7-1.71a4.08,4.08,0,0,1,2.26-3.42l-.1,1,.39.69C444.55,36.39,444.05,36,444.08,37.54Z"/><path d="M445.21,35.26l.14-.85-.14-.86c.71-.08.88.9,1.42,1.14v3.42C445.59,38.31,445.44,36.69,445.21,35.26Z"/><path d="M442.1,32.42c.22.11.28.57.56.57v1.13C442.06,34.39,442.12,33.31,442.1,32.42Z"/><path d="M439,42.66c-.57-2.1,0-3.83,0-6.26-.73-.47-1.55,1.72-2,0l.43-.28-.15-.86c.27-3.38,1.94-2.63,2.84-2.27a6.77,6.77,0,0,1-.29,2.84c.42.69.28,2.49,1.42,1.71A6.16,6.16,0,0,1,439,42.66Z"/><path d="M439.82,46.07c-.95.58-.44-1.77-.56-2.85C439.88,43.31,439.86,44.66,439.82,46.07Z"/><path d="M438.69,8.53l-.42-.28-.43.28c0-.9.14-2.17-.28-2.27-.05-1.24,1-.26,1.41-.57C438.82,6.51,439.31,8.63,438.69,8.53Z"/><path d="M438.4,27.87c.77.5-.23,2.53-.56,1.14C437.91,28.39,438.4,28.62,438.4,27.87Z"/><path d="M436.14,8V5.69C437.26,5.29,437.07,8.08,436.14,8Z"/><path d="M435.85,34.12c.07,2.52.54,4.11-.56,5.13.34-.08,1.08,1.52.56,2.84-.94-.18-1.12-1.9-1.41-3.41a7.42,7.42,0,0,0-1.14,1.7c-.75-1.55,0-5,.29-6.26C434.21,35.38,434.74,33.56,435.85,34.12Z"/><path d="M433.59,42.66c0,1,.34,1.2.28,2.27H433C433.08,43.92,432.73,42.08,433.59,42.66Z"/><path d="M433.3,32.42c-.5.83-1.71-.35-2.55-.57-.49-3,.11-6,.29-8.53.87.9,1.17,3,2.26,3.41C431.8,28,432.82,30.57,433.3,32.42Z"/><path d="M431.6,40.38c.23.11.29.57.57.57-.12.7-.36,1.17-.85,1.14C431.24,41.17,431.58,41.11,431.6,40.38Z"/><path d="M427.92,37.54l-.34-.85-.51.28c0-.66-.07-1-.29-1.14.26-1,1-1.47,1.42-.57l-.15,1.05.43.66C428.48,37.52,428.14,37.41,427.92,37.54Z"/><path d="M426.5,15.93c.23.1.28.57.57.57v1.13C426.46,17.9,426.52,16.82,426.5,15.93Z"/><path d="M414,48.35V46.07h1.13C415.06,47.39,415,48.74,414,48.35Z"/><path d="M414.31,17.06v4H412.6C412.93,19.23,413.08,17.06,414.31,17.06Z"/><path d="M413.45,25v2.85h-1.13C412.48,26.49,412.57,24.94,413.45,25Z"/><path d="M409.48,27.87h-.84C409.14,27.21,409.26,24.6,409.48,27.87Z"/><path d="M401,15.36c-.87-1.25.33-3.64,0,0Z"/><path d="M400.13,37.54c-1.08-.47-.45-3.28.56-2.85C400.74,36.11,400.25,36.46,400.13,37.54Z"/><path d="M398.71,11.37a9,9,0,0,1,.57,4C398,15,398.84,13.58,398.71,11.37Z"/><path d="M395.59,18.2c-.23-.1-.28-.57-.56-.57.05-.46.28-.56.28-1.13.23.1.28.57.57.56C395.82,17.53,395.59,17.63,395.59,18.2Z"/><path d="M394.46,43.79v-1.7c.44.24.24,1.79,1.13,1.13C395.5,44,394.88,43.7,394.46,43.79Z"/><path d="M384.25,34.69c.54.24,1.22.21,1.13,1.71C384.64,36.56,384.16,36.19,384.25,34.69Z"/><path d="M383.4,33c.3.14.19,1.13.56,1.13C383.71,35.67,382.71,33.65,383.4,33Z"/><path d="M381.13,29c-.88,2.72-1.63-1.63,0,0Z"/><path d="M375.46,41.52c-.43-1,.13-3.52.56-4.55-1.63-1.59-3.34-.52-2.26-6.83,1.35-.43,1.26,2,2.55,1.71l-.14.85.42-.28c.6,2.92.91,2.93.85,6.83C376.35,39.13,376.68,41.89,375.46,41.52Z"/><path d="M374,43.22c-.61-.48-1-1.4-.85-3.41C374.33,39.29,374.44,42.37,374,43.22Z"/><path d="M372.06,46.64c-.13-1.57,1.05-.53,1.13-1.71.39.18.23,1.42.28,2.28C372.67,47.68,372.74,46.4,372.06,46.64Z"/><path d="M372.06,25.6c.41.49,1.09.45.85,2.27C372.16,28,372,27.08,372.06,25.6Z"/><path d="M370.64,44.36a1.1,1.1,0,0,0-1.14-.57,5.74,5.74,0,0,0,.29-2.27c-2-.65-1.58,3.66-3.41,3.41a17.4,17.4,0,0,1,.57-4c-.05-.46-.28-.57-.28-1.14-.89-.65-.69.89-1.13,1.14-.72.1-.89-.87-1.14-1.7a3.67,3.67,0,0,1,1.7-2.85l.43.29.42-.29c.35,2,.83,1.05,1.42,1.71.84-1,.57-4.17,2-4C370.58,38.74,372.75,41,370.64,44.36Z"/><path d="M367,35.83l-.42-.28-.43.28c-.59-.33-.92-1.19-1.42-1.71.44-1.78,2.07-1.16,3.12-1.7C368.05,34.62,367.11,34.44,367,35.83Z"/><path d="M367,51.76c-.22-2,.32-2.4.57-3.41C368.12,48.87,367.91,52.48,367,51.76Z"/><path d="M365.25,51.19c-.72-.07-.56-1.91-.57-3.41h1.42C366.39,50.06,365.66,50.3,365.25,51.19Z"/><path d="M361,36.4c.34.65.52,1.63,1.42,1.14v1.71C361.41,39.38,360.93,38.43,361,36.4Z"/><path d="M361.85,48.92h-1.13V46.07h1.13Z"/><path d="M360.72,57.45h-.57V54.6C360.84,54.24,361.21,57.31,360.72,57.45Z"/><path d="M358.73,33c-.13-1.78.6-1.82,1.42-1.71C359.89,32.28,359.62,33.26,358.73,33Z"/><path d="M356.74,35.83l-.13-.85-.43.28c-.54-1.08.16-1,0-2.84.4,0,.8.1.85-.57.85.39,1,2.27.85,4.55C357.37,36.48,357.28,35.71,356.74,35.83Z"/><path d="M353.34,50.62c-.12-1.09-.61-1.43-.56-2.84.72-.45,2-1.51,2.55-.57l-.14.85.42.29A3.4,3.4,0,0,1,353.34,50.62Z"/><path d="M354.76,31.85c-.23-.11-.28-.57-.57-.57.05-.46.29-.57.29-1.14.23.11.28.57.56.57C355,31.18,354.76,31.28,354.76,31.85Z"/><path d="M353.63,54c.27-.92.75-1.31,1.13-.57C354.51,55.11,354.33,54.1,353.63,54Z"/><path d="M354.19,37c-.86-1.25.33-3.64,0,0Z"/><path d="M350.51,50.05l.14-1-.43-.66V46.07c1.61-.72,2.2,2.84,1.71,4.55C351.24,50.85,351.31,49.58,350.51,50.05Z"/><path d="M349.23,49.58l.14,1a10.17,10.17,0,0,1-2,.57,25.27,25.27,0,0,1-.57,6.26c-1.19-2-.7-6.43-.28-9.67,1,.4,2.35.21,3.12,1.14Z"/><path d="M349.94,40.38c-.85-.68,0-2.48.85-1.7C350.88,40,350,39.31,349.94,40.38Z"/><path d="M345.4,57.45c-.64-.57-.7-2.85.28-2.85A6.68,6.68,0,0,1,345.4,57.45Z"/><path d="M342.85,27.87h.57V29h-.57Z"/><path d="M339.45,47.21c-.59-1.17,0-2.89.85-2.85C340.35,46,340.33,47.47,339.45,47.21Z"/><path d="M336.61,37l-.28-.85L336,37h-.56c.53-1.39.5-3.91,2-3.42-.1-1.87-1.5-1.14-1.42-3.41,1.2-.07,1.36-2.2,2.56-2.27C339.13,33,340.08,35.25,336.61,37Z"/><path d="M332.64,27.3c.31.14.19,1.13.57,1.14C333,30,332,28,332.64,27.3Z"/><path d="M331.79,49.48c.69.36.15,2.88-.56,2.28C331,50.2,331.79,50.61,331.79,49.48Z"/><path d="M327.82,33c.75-.18.93.79.85,2.27C328.26,34.76,327.57,34.81,327.82,33Z"/><path d="M326.69,32.42c-.14-1.78.24-2.54,1.13-2.28-.05.67.06,1,.28,1.14C328.06,32.53,327.39,32.5,326.69,32.42Z"/><path d="M323,31.85c-.55.22-.42-2.59.28-1.71C323.36,31.06,323,31.13,323,31.85Z"/><path d="M319.31,33a6.82,6.82,0,0,0,.29-2.85h1.13c-.05,1.8,0,3.43.57,4C320.87,35.51,320,32.91,319.31,33Z"/><path d="M315.91,19.9c.31-2,1-3.85,2-2.84C317.91,19.36,317.06,19.93,315.91,19.9Z"/><path d="M311.38,37c.7-1.06.81-3.29,2.26-2.85l-.14.86.43.28c-.27,2.15,0,2.67-.29,4C312.76,38.09,312.41,38.43,311.38,37Z"/><path d="M313.64,31.28l-.42.67.14,1c-.23.3-.46.59-.85.56,0-2-.81-2.53-.85-4.54.31-.14.19-1.14.57-1.14A6.47,6.47,0,0,1,313.64,31.28Z"/><path d="M313.64,14.79c.39.17.24,1.43.29,2.27C313.27,16.91,313.28,15.54,313.64,14.79Z"/><path d="M312.51,23.32a1.1,1.1,0,0,1,1.13-.57c.06,1.82-.47,2.46-1.13,2.85C313,24.46,312.48,24.87,312.51,23.32Z"/><path d="M308.26,42.09c0-2.63-.13-5.56.28-7.4.41-.31,1.46.67,1.42-.57C310.11,36,309.62,41.4,308.26,42.09Z"/><path d="M306,24.46a4.4,4.4,0,0,1,.57,2.84C305.41,27.39,305.81,25.84,306,24.46Z"/><path d="M303.72,52.33c1,.46,1.38,2.15,1.42,4.54C303.83,57.15,303,54.34,303.72,52.33Z"/><path d="M304.85,60.86v1.7H304v-1.7Z"/><path d="M302.58,65.41c.35.64.52,1.62,1.42,1.13C303.9,68.43,302.26,67.66,302.58,65.41Z"/><path d="M302.87,15.93h.85V18.2C303.5,17.31,302.82,17.35,302.87,15.93Z"/><path d="M302.58,63.13V59.72C303,59.83,303.72,63.44,302.58,63.13Z"/><path d="M301.45,41c0-1.42,1-.17,1.13,0C302.4,42.65,302,40.41,301.45,41Z"/><path d="M296.91,50.05c-.63-.24-.11-2.8-.28-4l.43.28.14-.85c1.49-.16,2.68,1.4,2,4C298.5,49.83,297.13,48.77,296.91,50.05Z"/><path d="M292.94,48.92c.91-.29.46-3.26,1.71-2.85-.22,2.14.34,2.72.28,4.55A2.42,2.42,0,0,0,292.94,48.92Z"/><path d="M292.94,60.29c-.77-.72-1.45-1.63-2.26-2.28V55.74h-.86l.15-.86-.43.29c-.94,0-1.08-1.62-1.13-3.41,1.53-.14,2.76-.92,4.53-.57.28,1.2-.08,2.53.57,4,.83-.5,1-.73,1.42.57C294.27,57.27,293.28,58.12,292.94,60.29Z"/><path d="M287.84,46.64c.37-1.77,1.56-4.13,2.27-3.42.55,2.17.06,3.27,0,5.13C288.87,48.74,288.85,46.7,287.84,46.64Z"/><path d="M289.26,37c-.5-.14-.65-1-.57-2.28C289.54,34.12,289.19,36,289.26,37Z"/><path d="M287,25.6c-.13-3.1.75-4.18,1.7-5.12C289.46,22.88,288.33,25.6,287,25.6Z"/><path d="M286.14,50.05c-1-2.47-4-1.09-4.82-4,0-1.45.95-1.13,1.7-1.14.16-2.64-.39-3.43,0-5.12,1.36-.46,1,2.49,2.55,1.71C285.89,44.67,288,47.39,286.14,50.05Z"/><path d="M285.29,41V39.81c.24.11.26-.22.28-.56C286.12,39,286,41.84,285.29,41Z"/><path d="M285,58a4.67,4.67,0,0,1,.28,3.41A2.86,2.86,0,0,1,285,58Z"/><path d="M279.05,55.74c0-1,.35-1.2.28-2.28.82.07,1.35.72,1.14,2.85A1.21,1.21,0,0,1,279.05,55.74Z"/><path d="M276.21,43.79l.15-1-.43-.66c0-1.25.71-1.22,1.42-1.14C277.33,42.62,277.25,44.15,276.21,43.79Z"/><path d="M275.36,45.5c-.57-1-1.31-1.52-1.41-3.41h1.41l-.14,1,.43.66C275.73,44.72,275.38,44.77,275.36,45.5Z"/><path d="M275.93,51.76c-1.06.6-.81-1.42-1.7-1.14a23.1,23.1,0,0,1,.56-3.41C275.44,48.12,276.74,49.71,275.93,51.76Z"/><path d="M273.09,54.6a3.76,3.76,0,0,1-.56-2.27C273.41,52.07,273.54,53.76,273.09,54.6Z"/><path d="M271.68,44.36c-.06-1.86,1.33-2.24,1.13,0Z"/><path d="M269.12,44.36c.42.3.72.85,1.14,1.14v1.71h-1.42A7,7,0,0,1,269.12,44.36Z"/><path d="M266.86,47.21l-.14-.86-.43.29c.25-2,0-1.4.28-3.42,1.52-.77.88,2.8,1.71,3.42C268.32,47.87,267.27,46.9,266.86,47.21Z"/><path d="M228,48.35h.85v1.7H228Z"/><path d="M214.68,50.05c-.49-.14-.64-1-.56-2.27.23.3.46.59.85.57v1.13C214.73,49.38,214.7,49.7,214.68,50.05Z"/><path d="M214.12,52.89c-.38,3.33-1.34-2.06,0,0Z"/><path d="M199.37,14.79c.22-1.26.17-3.09.85-3.42,1.14.12,1.09,2.59.85,4C200.2,15.77,200.24,14.38,199.37,14.79Z"/><path d="M195.4,10.24c-.13-1.77.71-2,1.14-1.14C196.47,10.1,196.05,10.4,195.4,10.24Z"/><path d="M186.9,24.46c-.79-.66-.83-4.58.56-4C187.65,22.56,186.85,22.65,186.9,24.46Z"/><path d="M186,26.73c-.91-1.34,1-2.3,0,0Z"/><path d="M185.48,54.6v2.85a2.89,2.89,0,0,1-1.7-1.71C183.51,53.68,184.89,55,185.48,54.6Z"/><path d="M180.37,54.6c.29-1.51.47-3.24,1.42-3.41C181.91,53.51,181.5,54.78,180.37,54.6Z"/><path d="M167.33,57.45v1.13c-.23-.3-.46-.59-.85-.57C166.64,56.83,166.92,56.81,167.33,57.45Z"/><path d="M162.23,52.89c-.16-2,1-1.39.85-3.41,1.28-.78,2.69,2.06,2.27-1.7.77,2.2,1.82,3,1.13,6.82C164.47,53,163.79,53.89,162.23,52.89Z"/><path d="M163.64,42.09c-1.13-1.25-.95-1.59-1.41-4,.5.07.59-.7,1.13-.57l.14.85.42-.28C163.63,40.31,164.08,40.45,163.64,42.09Z"/><path d="M152.3,54a1.56,1.56,0,0,1,2.84.57C154.67,57.07,152.68,55.26,152.3,54Z"/><path d="M153.15,58.58v1.14c-.24-.11-.26.22-.28.57-.5-.14-.65-1-.57-2.28C152.53,58.31,152.76,58.61,153.15,58.58Z"/><path d="M151.73,46.07c-.22-.11-.28-.57-.56-.57V44.36H152A4.67,4.67,0,0,0,151.73,46.07Z"/><path d="M147.48,54c.17-1.87,1.07-.81,1.7-.57C148.92,55.53,148.34,53.81,147.48,54Z"/><path d="M146.63,62.56c-.75.18-.73-1.18-.85-2.27,1.07.43.19-3,1.42-2.28C148,59.69,146.15,59.69,146.63,62.56Z"/><path d="M145.5,46.64c-.51-.14-.65-1-.57-2.28C145.82,44.09,146,45.79,145.5,46.64Z"/><path d="M144.36,50.62c0-1.45.06-2.92.85-2.84C145.18,49.23,145.16,50.7,144.36,50.62Z"/><path d="M144.93,62h-1.14c-.08-1.49.6-1.46,1.14-1.7Z"/><path d="M141.24,50.05c-.89.27-1.11-.81-1.7-1.13,0-2.41.76-3.4,1.7-4C140.81,45.67,142.19,48.28,141.24,50.05Z"/><path d="M139.82,56.87c1.2,1,1.3,4.27.29,5.69-.87.43-.55-1.56-1.42-1.14C138.75,59.27,139.89,59.27,139.82,56.87Z"/><path d="M137.84,44.36c-.56-.25-.51-4,.57-2.84v2.27C138.08,43.71,137.9,43.92,137.84,44.36Z"/><path d="M135.86,58.58c.37-1.64,1.42-.54,2.27-.57C137.83,60.3,137,57.94,135.86,58.58Z"/><path d="M132.74,48.92c-.81.08-.66-1.71-1.42-1.71.44-2,1.5-2.68,2.27-4,.65-.17.31,1.65.85,1.71C134.38,47.29,132.88,46.73,132.74,48.92Z"/><path d="M100.12,46.64c-.18.57-.64.59-.56,1.71C98.77,47.75,99.69,45,100.12,46.64Z"/><path d="M97.29,36.4c.5.51.83,1.38,1.42,1.71-.19,2.06-1.65.92-2,0C96.83,37.36,97.23,37.22,97.29,36.4Z"/><path d="M95,18.77c-.29-1.91.89-.88,1.42-1.14C96.4,18.87,95.73,18.85,95,18.77Z"/><path d="M90.2,62.56c1,0,1.52-1.14,1.42-3.41l.52.29.33-.86c.37-.68.45-.22.85,0l.15.86.42-.29c.39,1.5,1.66,1.21,2.27,2.27.69,1.37-.69,1.51-.29,4-.74.17-.73-1.19-.85-2.28-2.35-1.59-2.23,1.93-3.68,3.41C91.7,63.73,90.32,64.42,90.2,62.56Z"/><path d="M86.51,51.76c2.12.11,3.34,2,5.39,2.27l-.14.85.43.29c0,.66-.07,1-.29,1.14l-.42.28-.43.28c-1.3-1.75-3.56-1.55-4.82-3.41A4.47,4.47,0,0,0,86.51,51.76Z"/><path d="M96.16,51.19a1.2,1.2,0,0,1-1.42-.57c0-1.25.71-1.22,1.42-1.14Z"/><path d="M95.59,25.6c-.89-.28-1.11.8-1.7,1.13l-.33-.85-.52.29V21.61c.73,2,1.78.44,2.83,0C96,23.41,95.36,23.62,95.59,25.6Z"/><path d="M94.74,38.11c0-1.59.8-1.86,1.13-1.14C95.81,38,95.39,38.27,94.74,38.11Z"/><path d="M93,35.83c0-1.65,1.35-1.37,1.13.57C93.58,36.64,93.42,36,93,35.83Z"/><path d="M92.76,16.5c-.86,2.09-1-1.73,0,0Z"/><path d="M91.62,42.66c0-1.42,1-.17,1.14,0C92.57,44.36,92.15,42.12,91.62,42.66Z"/><path d="M91.34,34.69c-1.31-.6-.43-3.41-.29-5.68l.43.28.14-.85C92.57,30.09,92.08,33.39,91.34,34.69Z"/><path d="M88.79,40.38c0-.34.39-.72.56-.57C90.36,40.68,88.83,40.89,88.79,40.38Z"/><path d="M88.5,22.75c.32-1.66.92.72.85,1.71C88.7,24.63,89,22.81,88.5,22.75Z"/><path d="M87.65,47.21h-.28v2.84c-.42-.3-.71-.84-1.14-1.13l.15-.86-.15-.85C86.11,46.28,87.78,46.28,87.65,47.21Z"/><path d="M86,26.73c-.64-.42-.11-3.19-.28-4.55.48-1,1.11.84,1.13-1.7.85.38,1,2.26.85,4.54C87.29,26,86,25,86,26.73Z"/><path d="M86.51,62a6.84,6.84,0,0,1,.29,2.85c-.59-.34-.92-1.2-1.42-1.71C85.45,62.13,85.87,61.84,86.51,62Z"/><path d="M83.12,55.17c.2-2.05,1.33-.8,1.7,0C84.7,56.43,83.31,55.61,83.12,55.17Z"/><path d="M80.28,31.28c-.18-3.36,1.44-2.25,2-2.84,0-2.41-1-2.89,0-4.55.63,2.7,2.25,3.43,2,8C82.82,32.59,82.11,32.65,80.28,31.28Z"/><path d="M82,62c.42-1,1.18-1.41,1.42-2.84,1.24.88.31,4.45-.85,4C82.66,62.17,82.33,62.06,82,62Z"/><path d="M82.27,22.75l.13-.85L82,21.61c0-.66.06-1,.29-1.13,1.12-.18,1.53,1.09,1.41,3.41C82.78,24.38,82.81,23,82.27,22.75Z"/><path d="M81.7,53.46a1.11,1.11,0,0,0-1.14-.57c-.24-2.2,1.24-.92.85-3.41C82.24,49.5,82.08,52.7,81.7,53.46Z"/><path d="M80.28,65.41v1.71c-.5-.34-1.67.68-1.7-.58C78.72,64.57,79.65,65.09,80.28,65.41Z"/><path d="M79.14,33.55c.06-.46.29-.56.29-1.13H80C80.13,33.63,79.59,33.5,79.14,33.55Z"/><path d="M74.61,27.3c2.25,1.29,1.51-3.41,2.83-4l.2,1L78,25c.18,1.55,1.19,1.43,1.13,3.42C77,28.85,75.75,31.25,74.61,27.3Z"/><path d="M76.6,33h.56c0,.48.11.53.28.56C77.56,34.66,76.15,34.39,76.6,33Z"/><path d="M75.46,61.42c-.64-4.42.85-5.5.57-9.09.44.24.24,1.78,1.13,1.13.41,3.86-.63,4.81-.56,8Z"/><path d="M73.19,62c.12-1.26,1.51-.44,1.7,0C74.93,64.51,73.41,62.5,73.19,62Z"/><path d="M73.76,52.89c-.29-2.77,1.51-1,.56,0Z"/><path d="M73.47,23.32V21.61c.37.2.45,1,.85,1.14C74.28,23.42,73.81,23.23,73.47,23.32Z"/><path d="M73.76,28.44c-.27-.61-1.05-.18-.85-1.71C73.17,27.34,74,26.91,73.76,28.44Z"/><path d="M73.19,29.58c.06,1-.49,1.47,0,1.7,0,1.24-1,.26-1.42.57V29C72.46,28.78,72.39,30,73.19,29.58Z"/><path d="M70.92,33.55c0-.33.4-.7.57-.56C72.49,33.85,71,34.07,70.92,33.55Z"/><path d="M69.22,20.48h.57v1.13h-.57Z"/><path d="M66.67,61.42c.55-.22.41,2.6-.29,1.71V62C66.63,62.1,66.65,61.77,66.67,61.42Z"/><path d="M61.28,55.17c.87-.42.83,1,1.7.57.94-.57-.08-2.29.85-3.41,1-.31,1.25.91,1.71,1.7A16.53,16.53,0,0,0,65,59.15a2.94,2.94,0,0,1-2.27-.57l-.33-.85-.52.28C62.06,56.26,61.07,56.92,61.28,55.17Z"/><path d="M65.25,61.42v1.71H64.12C63.83,61.24,64.51,61.27,65.25,61.42Z"/><path d="M62.13,41.52c-.87,1.7-2.83,1.38-3.4-.57l.14-.57.14-.57c.48-.55.73-1.56.57-3.41C61.07,36.82,62.14,38.1,62.13,41.52Z"/><path d="M56.74,39.81l.43-.28-.43-.28c-.05-1.25.24-1.82.86-1.71l.14.85.42-.28c-.08.92.27,1,.28,1.7l-.14.86.43.28a1.31,1.31,0,0,1-1.13,1.14C57.51,40.93,56.83,41,56.74,39.81Z"/><path d="M61,47.78c-1.25-.85-.28-3.92,1.13-2.85A6.29,6.29,0,0,0,61,47.78Z"/><path d="M60.43,32.42c-1.2-.17.18-2.39-.57-2.84.09-.78.71-.48,1.14-.57C61.22,31,60.68,31.41,60.43,32.42Z"/><path d="M55.9,31.28c.25-1.19.83-1.74,1.7-1.7l-.15,1,.43.66c-.18.58-.65.59-.57,1.71C56.42,33.26,56.56,31.46,55.9,31.28Z"/><path d="M57.6,21c0-1.12.77-.72.56-2.27C59.12,19.05,58.71,21.74,57.6,21Z"/><path d="M57,50.05c-.63-.44-1.54-.33-1.7-1.7l.14-.86-.14-.85c.57-.17.55-1.54,1.13-1.71l.33.85.52-.28C57.28,47.14,57.46,49.22,57,50.05Z"/><path d="M46.82,47.78c2.23,2.15,4.87,3.51,6.81,6.25,1.54-3,3.7-1.45,4.81,1.71-1.15,1.49-.72,2.78,0,4.55-1.41,1.57-3.25,2.51-4.53,0l-.14.29-.14.28c-1-2.17-3.14-2-3.69-5.12-2-.18-5.11-1.1-4.54-4.55-.57-.76-.66-2.47-1.42-2.84.88-1.11,2.31-4.07,3.69-2.28C48.11,48.09,46.71,46.41,46.82,47.78Z"/><path d="M55.9,25A1.28,1.28,0,0,1,57,23.89C57.32,25.6,56.39,24.89,55.9,25Z"/><path d="M54.19,26.17c1.12-.15,1.05,2,2.27,1.7.19,1.89-.58.92-.85.57a3.17,3.17,0,0,1-2.27,2.84C52.94,28.21,54.11,28.27,54.19,26.17Z"/><path d="M53.63,19.9h.85a6.84,6.84,0,0,1,0,2.85C53.21,22.5,54.05,21.55,53.63,19.9Z"/><path d="M51.64,34.12v1.71c-.37-.2-.45-1-.85-1.14C50.84,34,51.31,34.22,51.64,34.12Z"/><path d="M45.4,36.4c.59-.24.75.39,1.14.57C46.49,38.62,45.19,38.34,45.4,36.4Z"/><path d="M45.12,17.06c-.52-.6.78-1.31.85-.56C46,16.89,45.35,17.33,45.12,17.06Z"/><path d="M45.12,18.2c-.78-.05-.58.95-1.14,0C43.76,16,45.34,16,45.12,18.2Z"/><path d="M44,56.87c-.5,1.47-.71,2.74.29,3.42-.29,1.9-3.45.29-4.26-.57s-1.27-2.68-1.7-3.41C39.75,53.45,41.78,59.19,44,56.87Z"/><path d="M42,32.42c1,.3,1.32,1.9,2,2.84C43.54,38.08,41.55,35.09,42,32.42Z"/><path d="M42.57,45.5v2.85c-1.1.49-1-1.4-1.7-1.71A1.35,1.35,0,0,1,42.57,45.5Z"/><path d="M41.71,52.89c1.35,1.4-.79,2.93,0,0Z"/><path d="M40.87,26.17a1.31,1.31,0,0,1-1.14,1.13C39.8,26.3,40.22,26,40.87,26.17Z"/><path d="M40.3,44.36c.24,2.2-.7,2-.85,3.42C38.37,47.27,38.83,43.17,40.3,44.36Z"/><path d="M39.73,29.58c-.19,2.6-1.71-.46,0,0Z"/><path d="M36.33,53.46c.24-.84.71-1.22,1.42-1.13a3.69,3.69,0,0,0,.56,2.27C37.63,56.48,36.8,53.88,36.33,53.46Z"/><path d="M35.76,58.58c.29-1.6,1.2.16,1.7,0C37.5,61.1,36,59.09,35.76,58.58Z"/><path d="M34.62,39.81h-.84c.72-1.71,2.29-1,3.12,0-.32,1.64-1.39,1.78-2.28,2.28Z"/><path d="M34.06,14.79c.59-.25.75.39,1.13.57C35.16,17,34,16.45,34.06,14.79Z"/><path d="M34.91,45.5c.27,2-1.23,1-1.42.57C33.45,44.84,34.5,45.81,34.91,45.5Z"/><path d="M32.36,19.34c0-.48-.11-.54-.29-.57,0-.67.52-.48.86-.57C33,19.17,32.7,19.27,32.36,19.34Z"/><path d="M30.66,56.87c.89-.27,1.11.82,1.7,1.14C32.42,60.32,30.16,59.05,30.66,56.87Z"/><path d="M30.94,25c.38-.94-.1-3.61.85-3.41C31.65,23,31.8,25.05,30.94,25Z"/><path d="M30.09,67.68c.45-1.64,1.06-.69,1.7,0C31.42,70.08,30.86,67.68,30.09,67.68Z"/><path d="M29.52,30.14c0-1.44.95-1.12,1.71-1.13C31.49,31.06,30.11,29.8,29.52,30.14Z"/><path d="M28.39,54.6a1.8,1.8,0,0,1,2.27,1.14C30.44,58.25,28.11,57.77,28.39,54.6Z"/><path d="M26.12,38.68c.68-.23.62,1,1.42.57C27.75,41.41,25.7,40.48,26.12,38.68Z"/><path d="M27.26,43.22c-.12,2.47-1.65-.59,0,0Z"/><path d="M22.15,72.8V71.66c.23.3.46.6.86.57C22.84,73.42,22.56,73.44,22.15,72.8Z"/><path d="M22.43,68.82c0,1.72-2.31,1.76-2-.57C21.52,68,21.78,67.45,22.43,68.82Z"/><path d="M18.18,45.5h.57v1.14h-.57Z"/><path d="M15.06,61.42c-.13-1.77.61-1.82,1.42-1.7C16.13,60.68,15.66,62.63,15.06,61.42Z"/><path d="M12.79,60.29h1.14v1.13H12.79Z"/><path d="M10.81,56.87c-1.21.05-2,1-3.4.58-.72-3,.58-3.73,0-6.26a19.06,19.06,0,0,0,3.68,4l-.42.66Z"/><path d="M6.56,56.31c-1.47,2.26-1.1-3,0,0Z"/><path d="M2,57.45c-.24,2.17-1.48.57-2,0l0,.06V54.25A13.18,13.18,0,0,1,2,57.45Z"/><path d="M0,105.8V60.41a3.42,3.42,0,0,1,.6,1C1,61.25.83,60,.88,59.15c1.3.51,1.61-.95,2.55-1.14.36,1.19,1.12,1.56,1.42,2.85h.29l.14.85.14-.85c.41.89,1.48.45,1.42,2.27.47-.57.31-2.42.57-3.41,1.69.53,2.3-.18,3.11,0,.4,2.17-.56,6.21,1.42,6.25.23-.1.29-.57.57-.56l.14.85.14-.85c.67,1.5,1.83,2,2.84,2.84-.05.67-.52.48-.85.57.1.74.5.89.56,1.71,1.38-3,3.64-.44,4.54,2.27.64-.32-.34-.88.28-1.7,0,3.63,1.24,4.73,3.41,4-.38-2.39.52-8.88-.85-11.37l.14-.57.15-.57V60.29c-.27-1-1-1-1.43-1.71a17.4,17.4,0,0,1,.57-4,10.69,10.69,0,0,1,5.11,6.26c-.49.55-.73,1.57-.57,3.41.2,1.3,1.61.17,1.41,2.27H27c.28,1.91,1.1,2.73,1.42,4.56,1.89-.39,2.37,2.07,3.12,4,.64.16,1.06-.13,1.14-1.13a1.86,1.86,0,0,1,.56,2.27c1,.31.69-2,1.7-1.7l.43.28.42-.28c1.43-.08,3.07,1.41,4.82,1.13.34-.09.24-1,.29-1.7,1.35-.26,1.59,1.73,2.27,2.84,1-.29.41-3.72.56-5.68l.28.28.29-.28c.22-.31.46-.6.85-.57l-.14.85.14.85a4.7,4.7,0,0,1,.28,1.71c3.08-4.84,5.32,5.76,7.66,2.27-1-.89-2.3-2.15-1.7-4.55l.42-.28.14-.85c.92,1.27,1.41-2.22,2.56-2.28-.07-1.57-1.4-.6-1.7-1.71l.42-.66-.14-1h6.23c.54-.06.2-1.88.86-1.71l.14.85.14-.85c.81.08.52,2.38.57,4l-.43.27.14.86c-.7.08-1.36.08-1.7-.57.27,2.38.6,3.38.28,5.69,1.64-.29,0,2.61.86,3.41,1.44-2.36,2.41.85,3.4-1.71-.38-.57-1.06-.54-1.14-1.7h.29V72.8c.37-.74.06-3-.57-3.41,0,.48-.11.53-.28.56l-.14-.84-.43.28V68.25l.14-.57-.14-.56c.52-1.44,2.82.71,2.55-2.28,1.35.9,3.47.25,4.26,2.28.77.41.57-1.14,1.13-1.15,0-1.23-.23-1.8-.85-1.7,0-1.26,1.2-.24,1.7-.57l-.14,1.42.71.29v1.13l-.43.67.14,1c-.23.11-.28.57-.56.57-.08.92.26,1,.28,1.71l-.42.28-.15.85c-.36,1.78-.58.3-1.41,1.14a29.7,29.7,0,0,0-1.42-4c0,3-2.49.7-2.55,3.41,2.66-.19,3.65,2.86,5.95.57l-.14,1,.42.67c.21,2.3-.27,3.25-1.41,2.84.39,2,3.85,3,4.53.58-3.12-3.42-3-4.27-3-4.27l.14-.86v-.57l.43-.66-.15-1c.82-.33-.44-.89-.28-1.71l.48-.4.37-.74c.89-.27.75,1.53,1.42,1.71.32-.51,0-1.27.56-2.27,2.68,1.09,1.23,7.49,4,6.82-.25,2.6.93,2.3,1.7,2.84.06,1.24-.22,1.81-.85,1.71,2,2.13.87-3.34,1.14-4.55.62-.1.9.47.85,1.7.43-.85.43-2.54,1.42-2.27-.17,2.77.35,6.39-.57,6.26,0,1.69.74,1.93.85,3.41.73-1.13,1.78-2.23,2.84-1.14.16,1.81-.54,1.76,0,2.84,1.39-2.6,2.75-1.25,2.83,1.71-.34.83-1.08.86-1.42,1.71,0,2.15,1.67,3.83,2.27,2.84l.29.29.28-.29c.57.49,1.56-.9.85-1.13l.14-1.05-.42-.66c-.17-1.19-.7-1.63-.57-3.42H87.65c0-.9-.13-2.17.28-2.27l.43.28-.14-.85c2.21.29,2.75-.88,4.25,0,.17-2.13-1-.79-1.42-1.13-1.11-1-2-3.41-2.83-4.56l.42-.28.15-.86c1.22-.92,2.24,1.45,3.68-.56.17-1.66,1-5.61,3.12-5.12-.11,1.49-.91,1.59-.57,4l-.42.29.14.85c-.63-.31-.4,1.08-.85,1.13.25,1.77,2,.58,2.55,1.71l.37.74.48.4c-.05.46-.28.57-.28,1.14l-.43.66.15,1h-.86c-.14,2.82,1.67,1.13,2.28.57l.51.29.33-.86c.59-.15.57-1.52.85-2.27l.52.28.33-.85c.64.24.12,2.8.29,4,1,1.24,1.3.73,2.83.57l-.14.85.43.29v.56c1.36-.73,2.44-3.63,1.7-5.68.11-.61,1.55-1.32,1.42-.57l-.14.85.42.29.14-.57-.14-.57c0-1,.35-1.2.28-2.28-1-.32-.16-4.22-.85-5.11l.15-.57-.15-.58c.08-1.17,1.26-.13,1.14-1.7-2.39.74-3.56-.68-5.67-2.84.36-2,1.4-3.48,2.26-2.85-.07-2.33,1.16-3.72,0-5.11-1,1.87-1.21,5.53-3.12,5.68-.64,4,2.41,3.5,1.42,6.26l-.42-.28.14.84c-.31.15-.19,1.14-.57,1.15-2.79-.66-3.25-6-5.67-7.4,0-1.25,1.2-.24,1.71-.57-.76-1.46-.51-2,.84-1.71A16.84,16.84,0,0,1,98.15,58c-.69-.23-.63,1-1.42.57.11-2.13-.83-2.52.28-5.12,1.79,0,3.08,1.72,4.53,1.71.58,0,.41-1.1.57-1.14.51-.13.6.73,1.14.57,1-.29,1.58-2.65,2.55-1.71.57,1.17-.12,1.12-.29,2.28.16,2,1.65.91,2.27.57l-.14.85.43-.28c.34.24.58.73.56,1.7.42-.31,1.47.67,1.42-.56-1,.21-.74-2.31-2-1.71l.14-.86-.43.29V53.46c.71.07.88,1.07,1.42,0,0-1-.35-1.2-.28-2.27-2.29.41-3.8-.72-4-4.55l.42.29.14-.86c.45,0,1.09.27,1.14-.57l.43-.66-.15-1.05c.83.16,1-.13.57-1.13l.42-.29-.14-.85c-.14-2.76-1.4-3.25-2.27-4.55l.15-1-.43-.67c.51-1-.08-2.23-.85-2.27v1.7l-.39.69.11,1c-.88-.4-.55-.4-1.42,0l-.43-.28-.14-.86c0-3.54-2-3.18-2.55-5.68l.43-.29.13-.85c-.07-2.43.83-2.9,1.42-4l.15.85.42-.29c.28,0,.22.7.29,1.15.51.07.59-.7,1.13-.57.4,2,.7,4.28,1.7,5.11.81-.48,1.75-.66,2.55-1.13.29,2.66,2.26,1.9,3.12,3.41l.33.85.53-.29c1.6.49,1.63,3.79,4.25,3.42.62-.08.61-1.43.56-2.85h1.14v1.14c.28,1.72-.63,1-1.14,1.14.57,2.29,1.9,3,3.12,4l.43.29.14-.86c.46.75,2.5,1.24,2.55-.56-.56-.24-2.1-1.42-2.55,0l-.43-.29-.42.29a13.1,13.1,0,0,1-.57-5.13c.59-1.27,2.64.38,2.56-2.27a79.93,79.93,0,0,1,4.81,9.67h-.56v1.14c-.41,0-.81-.1-.86.56.6-.23.76.4,1.14.57l-.14.86-.14.85c.53,2.58-1.13.77-.86,2.85.27,2.7,1.7,3,2,5.68,2,.48,3-1.16,3.4-4l.53.29.33-.86c.23.11.28.57.56.57-.71.47.33,4.45-.85,4-.2,1.55,1.34-.41,1.14,1.14l-.43.66.14,1,.53.29.32-.85c1.22-.17,1.88.79,2.56,1.7-.46,1.67-.9.23-1.42,1.14.11,1.67,1.66.45,2,1.71l-.42.66.14,1c-1.84-.84-1.57,2.56-3.4,1.71-.26-1.2-.87-1.68-.85-3.41-1.36-.44-.5,3.55-1.42,4a6.29,6.29,0,0,0,2.27,3.41c-.62,1.81-.93,4.22-2,5.12.87,1.48,2.18,2.09,3.12,3.41.48,0,.73-.42.85-1.14-.06-2.71-1.31-3-.85-6.82.59-1.09,1.75-1,2-2.85.89-.27,1,1,2,.57.77-1.47,1-4.1,2.55-4,.69,1.74-.84,5.08.28,6.26.5-.52,1-1,.86-2.85,1.09.79,1.63,1.53,2-1.13a3.84,3.84,0,0,0,2.84.57c.38-.56.36-1.92.85-2.28,2.4.38,4.77-2.05,6.8-.57.25,1.84-.92.8-1.13,1.71.51,1.85,1,.15,2.27.57.4,3.81.25,9,3.4,8.53,0-.55.34-.44.57-.57-.54-2-.27-4.3.84-4.55-.49-1.28-1.32-1.89-1.12-4.55,1.46-2.74,4.6-2.15,5.94-5.12.48,2.78,3,4.12,4,1.14,1.48.81,3.24,1.07,4.53,2.27a5.62,5.62,0,0,0,1.71-2.84l.52.29.33-.86c.21-1.48,1.15-1.49,1.69-2.27.75,2.5,2.93,2.11,4,4,.58-1.17-.11-1.14-.56-1.71,1.38-3.13,3.19,1.51,4.82,1.71.92.11,1.37-2.57,2.27-.57,1-1-.09-4.36,1.13-5.69.67.84.53,1.2,1.42.57-.46,3,1.53,1.11,1.42,3.41-1-1-.7.38-1.7.57a7.42,7.42,0,0,0,.56,4l-.42.67.14,1c-.49,1.48-2.34.23-2.27,2.85.89.11,2.08-.39,2.55.56a7.55,7.55,0,0,0,0-3.41l.43-.29-.14-.85c1.16-1.64,3-2,3.68-4.55.73,1,1.37,1.42,1.7-.57-.08-2.28-1.33-2.25-1.13-5.12,1.45,0,2.2,1.29,2.84,2.85.83-.48-.18-1.83,0-2.85.58-1.14.55.25,1.13.57-.78-2.16,0-4.49,1.13-6.82l.43.29.43-.29a7.4,7.4,0,0,1-.57,4c-.11,2.31,1.21,1.75,1.42,3.41.56-.57.44-2.51,1.41-2.27.47,2.1,1,4,2,5.11-.41,1.69-1.11-.74-2,0,0,.19-.33,3.6,0,4-.48.3-.66,1.54-1.41,0,.87,1.68,1.75,3.31,3.12,4,.67-.17-.32-1.54-.57-1.71.85-3,2.43-4.59,4-6.26,1.53,2.71,3.41,2.61,5.38,3.42,0-1-.34-1.2-.28-2.28l.39-.68-.11-1c1.09,1.42,2.93,1.33,4.26,2.27-.54-2.14-2-2.47-2-5.69,2.19.43,4.38,1.93,6.24,0a14.47,14.47,0,0,0-2-4.54c-.62.47-1,1.46-2,1.13l.13-.85-.42.29c.47-4.86,2.27-3.84,4.54-4.56,1.28,2.56,2.65,4.92,4.53,6.26a19.57,19.57,0,0,0,1.71,8,8.83,8.83,0,0,1,1.41-3.41c.37,1,1.27,2.5,2,1.14-.41-1.64-2-.89-2-3.42,1.15-.34,1.4-2.51,2.55-2.84,0-1.51-.1-3.24.29-4,2.31.79,1.74,6.71.28,8.53.31,1.48.18,3.81.85,4.55.34-2,.59-1.52.85-2.84,1.17.76,0,3.18.57,4.55,1,.54.24-2.56,1.13-2.28l.28-.28.29-.29c.07,1,.49,1.3,1.14,1.14l.14.86.42-.29c.45-.06,1.24,2.06,2,2.27.29.09.52-1,.85-1.13.95-.34,1.86,1.67,2-1.71l.28.29.29-.29c.23.11.28.57.57.57l-.15.57.15.57c.29,5.48,1.4,9.33,3.68,10.8.15-.83.42-1.43.57-2.27l.43.28.14-.85h.57c0-1,.34-1.2.28-2.28H249l-.28.29-.28.29c-.06-.47-.29-.58-.29-1.15-.8-.22-2.74.29-2.55-3.41a5.14,5.14,0,0,0,1.7-3.41,2.92,2.92,0,0,0-2.27.57l.14-.85-.42.28a17.88,17.88,0,0,1-.28-4c-1.25,1.54-1.52-.73-2.56-1.14,1-3.44,3.38-1.72,4.26-4.55.59.52.86,1.68.85,3.41,4-1.45,8.08-2,11.06.57.72-.06,1.1-.82,1.13-2.27.82-.06,1.63,2.39,2,0,2,3.84,5.12,5.07,8.23,5.68,1,.2,1.67-1,2.55-.56,1.81.87,1.56,4.34,3.12,7.39,1.51-1.16,2.66-6.46,4.54-3.41.09,1.76-.66,2.71,0,4,.89.26.8-1.43,1.13-2.28a5.58,5.58,0,0,1,1.7,4c.38-.94,1.61-.18,2-1.13l.42-.29.43-.28c.81,2,2.28,1.62,3.12,4.55l-.14.57-.15.56c-.37.76-.06,3,.57,3.42l.14.85.43-.28s.4,2,.56,1.7a6,6,0,0,1-.42-2.55L289,72.8c0-1.41-.44-1.76-.56-2.85l.42-.28-.14-.85c.13-.7.36-1.17.85-1.14.28.76.27,2.12.85,2.27.9-1.12-.35-2.64-.85-2.83.52-1.12-.08-3.19-.28-4.56l.42-.28-.14-.86c2.6.67,3.34,5,4.82,8a8.35,8.35,0,0,0,.85-4l.43.28-.15-.85a7,7,0,0,0,1.14-1.71h-1.14l-.13-.85-.15.85c-.61.1-.13-2-.28-2.84.38-.57,1.05-.54,1.14-1.71,1,2.66,2.17,5.12,4.25,5.69,0,3,.88,4.3,1.41,6.26a5.35,5.35,0,0,0,.57-1.71,32.18,32.18,0,0,1,1.13,4.55c.62-1,.6-3.35.57-5.69.95-.19.92-2.33,2-2.27l-.14.85.42.28a45.37,45.37,0,0,1-1.13,4.56c.28,1.13.49,2.42,1.13,2.84l-.14.85-.14.85c0,.56-.35.45-.57.57-.09,2.09.43,2.92,1.14,3.42l.33.85.51-.28c.51,2,.59,1.34,1.42.57.56.39-.07,3.17.57,3.41,1.69-3.29.29-8,0-12,1.09.31,1.38-1,2.55-.57V70c-.24.11-.27-.21-.28-.56h.28v-.57c0-2.43-.38-4.16-.56-6.26,1.27.47,1.26-1.63,2-2.27-.24-1.41-2,.17-2.27-1.14-.22-3.28,1-2.72,2.55-4,1.71-1.41,2.11-3.32,2.84-3.41,1-.12,2.73.81,2.83,3.41l-.42.28.14.86c-.61.07-2.5.55-2.27,4l-.42-.28-.14.85c-.23.3-.46.59-.86.56-.47,2.6,0,5.61,0,8l-.42.28.42.28c0,1.19-.58,2.14-.28,2.85,0-.55.35-.44.57-.57V70l.42.29-.14-.85c-.15-2.14-.36-2.59.57-3.42.5,2.23,1.59,3.26,2,5.69-.48,0-.73.43-.85,1.14.58,1.11.55,3.44,1.14,4.55.74-3.87-.48-5-.29-8.53a3.62,3.62,0,0,0,2.27-3.41c-1.61-.74-.73-6.5-1.42-9.1l.15-.57.14-.57c0-2.88.49-4.71.28-8,.33.09.51-.12.57-.57.9,1.84,2.45,5.64,1.13,8.53.21,1.86,1.42,1.71,2.27,2.28-.26-1-.1-2.84-.57-3.42,0-1.45,1-1.13,1.7-1.14.35-1.77,1.46-5.91,3.41-6.25l-.1,1,.38.69c-.26,3.18,1.36,2.59,2,4-.22,2.44-.24,7.07-.57,10.8a2.69,2.69,0,0,0,.85,1.14c.47-.76.44-2.53.85-3.41l.28.28.29-.28c.57,1.18,2.86,3.23,3.12,0,.92.22.88,2.4,1.42,3.41.1,1-.23,1.08-.57,1.14-.05,1.41.44,1.76.57,2.84a5.83,5.83,0,0,0,1.41-3.41c1.1.59,1.17-.29,2,.57l.14.85.14-.85c.23.11.28.57.57.56a4.64,4.64,0,0,0,.28-1.7h-.85l-.14-.86-.14.86c-.43-.85-1.2-1-1.42-2.28l.43-.28-.43-.29c.19-1.7,1.09-2,.85-4.55,1.43-.13,2,4.45,2.56,0l.42.29.14-.85c.92.43.68,3.19,1.14,4.55a1.18,1.18,0,0,1,1.41-.57l.14.85.43-.28c-.12,1.37.52,1.23.28,2.84,1.1.5,1-1.39,1.71-1.71a11.16,11.16,0,0,1-.57-4.54c.85-2,4-2.72,4.25,1.13.8-.47,1-2.23,1.42-3.41.8-.09.82,1.39.85,2.84l-.42.29.14.85c-.1.64-1.4,1.64-.57,2.27.07-.81.84-.19.85-1.13l.42-.28-.14-.86c1,0,1.24,1.68,1.14,4,1.29-.89.52,2.36,1.41,2.28H357l.33.85.52-.29c.18,1.71.61-.54,1.13,0a23,23,0,0,0,.85,2.85c1.71-.86,2.35-3.78,1.7-6.83l.14-.57-.14-.56c-.4-2.52,1-1.49.86-3.41.71-.1.88.87,1.13,1.7l.14.86.43-.29c-.08,1.93-1.11,2-1.14,4,1.06,2.52,1.51.19,2.84,1.14-.15-2.82-.12-3-.28-5.12h-.86l.15-.85-.43-.29c.35-1.57,1.26-2,1.7-3.41l.28.28.29-.28c.74.78,1.08,2.4,2,2.84-.27-2,.77-6.68,1.7-6.25.92-.5.59,1.47,1.14,1.7a1.6,1.6,0,0,0,.57-1.13l.42.28.14-.85c.33-.1.51.12.57.57.57-2.08,1.91-2.63,2.27-5.12.56.39.76,1.51.85,2.84,1.86.5,1.71-3,3.4-2.84-.22,2,.32,2.4.57,3.41.87-.3.42-5.14,1.7-2.84a46.74,46.74,0,0,1,0-10.24c.93-.29,1.25-.52,2,0a9.14,9.14,0,0,1-1.13,4c1.08,2.32-.49,6.59,2.27,5.69.23-2-.42-2.19-.28-4,1-.72,1.64-2,2.55-2.84,1.18.65,1.74,2.57,2.27,4.55.79-.69.53-3.49.56-5.68l.43.28.14-.85c1-.57.93.78.85,2.27.61.68,1.58.61,2,1.71-.48,3.63,1.26,2.79,1.14,5.69.67-1,1.87-3.41,2.55-1.14.59-.33.92-1.2,1.42-1.71l.14.85.43-.28c.61.08.61,1.43.57,2.85.5.07.59-.7,1.13-.57l.33.85.52-.28c1.28,1.87,2.33-1.62,2.55-2.28-.5-.51-.72-1.59-1.7-1.14-.42.68-.44,2.15-.85,2.85l-.33-.86-.52.29c-.72-2.46.84-2.54.57-5.69-.74-1.4-1.06,1.23-2,1.13l.14-.85-.42.29c.08-.92-.27-1-.29-1.71l.15-.85-.15-.85c.38-.73,1.05-.73,1.42,0,.32-1.85,1.21-2.89,2.27-1.71l.14.85.43-.28a24.37,24.37,0,0,0-.29,5.11c1.57.4,1.16-1,1.42-2.27.92,3,1.28-.41,2.27-1.14.33-.24,1,.47.85.57.75-.69.49-2.17,1.14-1.7-.54,2.63.94,4.1.28,5.11l-.28-.57-.29.57c-.7-.08-1.37-.1-1.42,1.14.55.25.51,1.62,1.42,1.14l.29-.29.28-.28c0,1.07.94.4.85,1.71.87.42.54-1.57,1.42-1.14.3,3,0,3-.57,5.12,1.29,1.06.38-2.26,1.42-1.71,0,1.34.48,1.68.28,3.41,2.06-.6,4.44-.57,4.82-4.54-.32-1.63-1.34-1.87-1.7-3.42.13-2.2,1.27-2.38,2-3.41.34.25.57.73.56,1.7,1-.15,1.63-.9,2.84-.56-.05-.66.06-1,.28-1.14-.29-1.32-1-1.83-2-1.71-.49-2.47-.72-5,.29-6.82v.56h.28c2.15.26,3.27,2.55,5.39,2.85.13,1.22-.41,1.08-.85,1.14-.88.83-.6,4.61-.28,6.25.76,1.89,2.47,1.87,3.4,3.42,1.07-2.92,2.78-1.11,4.25-2.85,1,1.79,2.54,3,2,6.26,2.25,3.85,4.53.67,4.53-3.41,1.78,1.7,1.63.6,3.41,1.71.28,4.17.81,6.1,1.13,9.09a1.35,1.35,0,0,0,1.7-1.14c-1.87-.23.67-3.53-.28-8.52.41-1.26.69.71.85-.57l.28.28.29-.28c1.73.63,1.6-2.47,2.55-3.42-1-1.84-1.2-6.91.28-8,1.14.55,1.6,2.48,2.27,4,0,1.24-.23,1.81-.85,1.71.51,1.62,1.65,2,2.27,3.41-.29.75-.28,2.1-.57,2.85-1-.4-1.55-1.84-2.27-2.85-.91,2.85,1.43,3.38,2,5.12a2.66,2.66,0,0,0,.85-2.27c.68-.35,2.05.71,2.27-.57l.42.28.14-.85h.85v1.14h.57v1.13c-.45.05-1.08-.27-1.13.57a1.19,1.19,0,0,0,1.41.57v-1.7h.57V47.78c.13-.83.25,0,.57,0,.32,1.78.13,1.5-.29,2.84.27,1.37,1.15,1.5,2,1.71,1-1.35.63-2.8,2.27-3.41,1,3.92,3,3.18,4.25,5.68.69-.33.63-2.15.85-3.41a1.31,1.31,0,0,1,1.14,1.14l-.43.28.43.28c0,2.79,1.62,2.43,2,4.56.23-.3.46-.6.85-.58.42-.24-.11-.72,0-1.7,2-.8,2.4,1.63,3.41,2.84,2.14-.25,2.47-4.12,2.26-9.09,1.25-1.76,1.84,3.09,2.84,1.7l.14.85.14-.85c.59.16.27,2.12.86,2.27-.37,1-1.36.71-1.42,2.28l-.29-.29-.28.29h-.28c-.57,1.12-.18,3.25,0,4.55-1.21.09-1.43-1.1-1.71,1.14,1.79.54,2.26-1.54,2.56-4l.42.29.14-.85c.63-2.33,1.73-2.74,2.84-5.12.45,2.12,2,2.14,2.83,3.41.61-1.84.57-1.3,2.27-2.27-.38-1.81-.06-1.9,0-4-1.06.36-1.62.89-2-1.14l.14-.86-.14-.85h.28a2.69,2.69,0,0,0-.85-1.14c.29-3,.16-3.07-.28-6.25.19-.44,1.58-1.27,1.7,0,.26-2.31,1.58-2.52,2.55-3.42.62,1.23.71,3.51,1.13,5.12.85-1.73,1.77-1.48,2.27-2.84.89-.27.75,1.53,1.42,1.71l.14.85.43-.28c.89,3.26.54,4.12.56,7.39a1.19,1.19,0,0,0-1.41.57c.09,2.5,2.31,2.73,2.83,1.14a2.63,2.63,0,0,0-.85-2.28c.17-2.51,3-2,4-1.14.05,1.25-.23,1.81-.85,1.71.21,2.08,2.33,1.31,2.27-.57l.33.86.52-.29v1.14h.85c1.07-2.74-.73-4.6-1.14-6.26.62-4.64,3.08-5.6,4-9.67.8,1.31,1.31,1.94,2.55,1.14-1,3-2.81,4.24-3.4,8-.07,2,1.33,1.12,1.13,3.41l-.43.67.15,1c-.28,0-.23.69-.29,1.14.23.3.46.59.85.57.08-.92-.26-1-.28-1.71l.43-.66-.15-1c.93-.23.73-2.7,1.14-4a12.76,12.76,0,0,0,1.42,2.84c.73-.8,1.35-1.83,1.13-4.54,3.23,1.61,4.16,1,7.37,2.27.33-.2.72-1,.28-1.14.06-.64.29-.31.29,0,.24.11.27-.22.28-.56.81,1,.53,4.24,1.7,4.54l-.42.29-.15.85c-.33.09-.23,1-.28,1.71h1.14V44.93l.42-.28-.14-.86c1.24-.78,1.73.35,3.12.57-.52-5.4-4.62-3.62-4.54-10.24,1.9,0,4.38-.2,5.11.57.74.17.22-2.21,1.13-1.7-.32-6.33,1.92-7.52,4.54-8-1,1.77,9.14,5.77,8.5-1.13.78,1.87.92,6.7.57,9.1-.58-.92-2-.08-2-2.28-1,1.35-2.25,2.33-3.12,4,.47,3.7,3.67.89,4.25-.57.42.49.41,1.84.57,2.85,1.26-.82,1.5-.16,2.27,1.14l-.15.85.43.29c.27,0,.22.69.28,1.13-.32-.09-.5.13-.56.57.42.3.71.84,1.13,1.14,0-.66.06-1,.28-1.14v-.57c-.54-.23-.22-2.2-1.13-1.7l.14-.86-.42-.28c.33-5.56,2.67-.8,3.4-5.12,1,1,2,1,2.79.15V105.8"/><path d="M22.15,62l-.14.86.14.85c-.66-.19-1.33-.37-1.14-2.28C21.47,61.48,22.1,61.16,22.15,62Z"/><path d="M42,68.25c.21-1.75-.78-1.09-.57-2.84,1-1.35,1.91-1,4-1.14l-.14.85.42.29c.64,2.29-1.74,2.75-2,5.12l-.43-.29.15.86h-2l.14-1-.42-.66C41.27,68.69,41.51,68.22,42,68.25Z"/><path d="M40.3,69.39l-.14.85L40,71.1c-.91,2.29-2.18-1-3.11-1.71s-2.92.7-2.56-2.27c.81-.1,1.95.48,2-1.15-.24-2-1.68-1.92-.85-4.55.46,1.34,1.65,1.24,2.83,1.14,0-1-.21-1.47-.56-1.7.55-1.44,1.9.31,2.55.56-.39,1.5-1.19,2.16-1.42,4,.24.84.71,1.22,1.42,1.13C40.47,67.56,39.47,68.9,40.3,69.39Z"/><path d="M50.22,67.68c.16-1.26-.54-.81-.57-1.71l.43-.28-.43-.28V64.27l.43-.66-.14-1h.85a7,7,0,0,0,.28,2.85h.29l-.14.85.42.28a18.6,18.6,0,0,1-.28,4l-.43.28.14.85c-1.07-.83,0,2.54-1.13,1.71-.32-1.47-2.2-2.76-2.55-2.27.84.68-.89,1.81-1.14.56l.14-.56-.14-.57C46.39,67.19,48.78,68.38,50.22,67.68Z"/><path d="M89.07,90.43V89.29H88.5c-.34-.74-.11-.89,0-1.7.46-.16.49.54.85.57l-.14,1,.43.67C89.63,90.42,89.29,90.31,89.07,90.43Z"/><path d="M87.37,74.51l-.43.28-.14.85-.42-.28-.15.85c-.53-.06-.2-1.88-.85-1.7.43-.67.69-1.65,1.42-1.71l-.14.86.42-.29C87.14,73.83,87.37,73.93,87.37,74.51Z"/><path d="M83.83,68.54l-.43-.29c-.05-.66.06-1,.28-1.13,1.17,1.52,1.76.2,2.55.56l-.14.86.42-.29c.58.55,1.13,1.16,1.71,1.7l-.14.58.14.57c0,.8,0,1.6.28,1.7-.24,1.65-.42.64-1.13.57l.14-.85-.43-.29c-1.36-.48-2-2.36-3.4-2.84Z"/><path d="M101.83,78.49l.42-.66-.14-1c.6-.24.75.39,1.14.57l.14.86.42-.28c.54.53,2.1,4.1.57,5.11l-.28-.29-.29.29C102.84,82,101.22,81,101.83,78.49Z"/><path d="M106.08,70.53l-.14.85.43-.28c.07,1.65-.54,2-.86,2.84-.39-1.29-1.52-1.12-1.7-2.84l.43-.29-.43-.28C104,69.25,106,68.62,106.08,70.53Z"/><path d="M105,37c0,.48-.11.53-.29.57l-.14-.85-.42.28V36.4l.49-.14Z"/><path d="M99.14,28.53l.14,1c-2,1-3.5-.54-5.11-1.71,1.07-1.27,2.38-2.05,2.27-5.69a3.36,3.36,0,0,0,2.55.57c.21,2.49.53,3.51.57,5.12Z"/><path d="M100.69,18.2c-.09-.77-.71-.47-1.13-.57,1-4.32,3.11.92,4.82.57-.12,1.09-.1,2.45-.85,2.28.21,1.66,1.53,1.1,1.42,3.41-1.24-1.65-1.69,3.05-2.84,0l-.28.28-.29.29c-.39-1.49-1.83-.86-2.26-2.28C99.37,20.1,100.49,20.06,100.69,18.2Z"/><path d="M112.89,27.87l-.28-.85-.29.85a1.3,1.3,0,0,1-1.13-1.14l.14-.85-.43-.28c-.08-1.32.82-.64.86-1.71C112.24,24.66,113.73,26.33,112.89,27.87Z"/><path d="M114.31,29V27.87h-.57c0-1.34-.49-1.67-.28-3.41.92.33,1.31-.39,2-.57C115.54,26.56,115.32,28.58,114.31,29Z"/><path d="M128.77,48.92c-.9-.68-2.14-.65-2.84-1.71a4.74,4.74,0,0,0,.28-1.71l.15-.85-.15-.86c.25.11.27-.22.29-.57-.24.11-.27-.21-.29-.56l.43-.29-.14-.85c1-.41,2.53,2.36,2.55,5.69l-.39.69Z"/><path d="M174.14,58.58c-1.15.58-1.63.4-2-1.71l.43-.28-.15-.85.43.28.14-.85c.42.67,1.16.7,1.42,1.7l-.43.67Z"/><path d="M173,54l-.42-.28-.15.85c-.4-.05-.8-.09-.84.57l-.43-.29-.14.86c-.31-.14-.2-1.13-.57-1.14l.14-.57-.14-.57c1.14-1.52.93-5.72,2.27-6.82C172.5,49.73,173.17,51.05,173,54Z"/><path d="M202.49,41.52c.24,1.79,1.07,2.4,1.13,4.55-1,1-1.66-.44-3.11,0l-.15-.86-.42.29c-.63-4.3.47-9.38,2.83-10.81,0-1.84-1.28-1.21-.85-4,3.06-2.21,2.58,6.91,3.12,9.1C204.5,39.83,202.87,38.57,202.49,41.52Z"/><path d="M210.71,51.19a1.2,1.2,0,0,0,1.42.57c.63,1.86-.59,2.51,0,4l-.42.67.14,1c-1.16-.13-1.86-1.21-2.56-2.28l.15-.85-.15-.86C209.7,52.57,210.77,53,210.71,51.19Z"/><path d="M208.73,55.17c-.45.24-.24,1.79-1.13,1.14-.45-1.19-.2-3.78-.57-5.12,1.06,0,1.62.91,2,2.27l-.43.67Z"/><path d="M236.8,56.31l-.52-.29-.33.85c-.31-.13-.19-1.12-.57-1.13a9.68,9.68,0,0,1,1.71-4.55c.66.18.63,1.76,1.13,2.27-.37,1-.59,2.24-1.42,2.28Z"/><path d="M239.07,58.58l-.43-.28-.42.28a4.1,4.1,0,0,1,.57-4C240.06,54.16,239.73,58.15,239.07,58.58Z"/><path d="M310,77.93c-.86,1.39-1.35.56-2.56.56l-.42-.28-.42.28a6.82,6.82,0,0,1-.29-2.85l.43-.66-.14-1c.54-.23.22-2.21,1.13-1.71-.07,2.42.79,3.9,2,4C309.65,77,309.63,77.83,310,77.93Z"/><path d="M334.34,46.07h-.28v.57c-.23-.49-.78-.34-.85-1.14-.35-.17-1,1.64-.28,1.71-.86.93-2.48.33-2.56,2.84-.5-.5-.82-1.37-1.41-1.7l.14-1.05-.43-.66a7.45,7.45,0,0,0,1.7-4.55c-.14-2.94-2-2.46-2.27-5.12.28,0,.23-.7.29-1.14.89.85,1.36.44,1.42-1.71A5.39,5.39,0,0,0,332.07,37c.26,2.75,1.07,6,2.56,4.55C335.07,44.18,334.39,43.41,334.34,46.07Z"/><path d="M336.33,49.48l-.43-.28.14.85c-.94.7-.88,0-2.26.57-.14-1.79.87-1.29.56-3.41l.43.28-.14-.85C335.78,46.4,336.42,47.22,336.33,49.48Z"/><path d="M337.18,48.35c.48.73.57,2.26,1.13,2.84-.05,2.74-.62,4.43-.85,6.82-1.14-.54-1.42-3.91-.85-6.25l.14-.57-.14-.57A3.66,3.66,0,0,0,337.18,48.35Z"/><path d="M342.85,53.46c.2.46.44,1.56,0,1.71l-.43-.29-.13.86h-.58c.86-3.15-1.24-3.48-1.13-6.82,1.43-1.33,3.17-.21,2.55-4.56-1.39.15-2.75.22-2.55-2.84,1.6,0,2.05-2.35,3.41-2.84,0,5.1.54,10.14.28,13.65C344.23,53.57,343.55,53.55,342.85,53.46Z"/><path d="M357.88,64.84l-.34-.77-.51.2c0-1.34.48-1.68.28-3.41,1,.35,1.31,1.93,1.42,4Z"/><path d="M398.71,41c-1,.77-1.65-1.37-3.12,0,.1-2.66-1.93-1.06-2.55-2.27.88-1.59,1.28-1.9.85-5.13,1.77.57,3-1.23,4.25,0-.54,2.82.43,3.44.85,5.7l-.42.66Z"/><path d="M419.69,31.85l-.42-.29.14.86c-1,.23-1.62-.17-1.42-2.28,1.11.57,1.65-1.25,2.27,0C420.27,31.12,420.05,31.62,419.69,31.85Z"/><path d="M463.07,47.78c-.7.09-.88-.88-1.13-1.71a7.19,7.19,0,0,1-2.26,3.41c.35-2.9-2.16-2.08-1.14-4.55-.45,0-1.08.28-1.14-.57.1,2-1.34.64-2.26,0l.14-1-.43-.66c.16-1.19.71-1.63.57-3.41.89.64.75-.17,1.42.56-.75-1.91.05-4.53.56-5.69.62.66,1.84.12,2,1.71l-.42.29-.15.85H458c.51,3,.09,2.56,2.56,2.28.47-.06.54-.24.56-1.14.23.49.78.34.85,1.14l-.42.56.42.57c.31,2.42,1.38,3.31,1.42,6.26l-.43.29Z"/><path d="M494.55,39.25l.14-.86-.42-.28c.58-3.32,2.45.15,2.83,2.27C496.14,42.24,495.41,40.46,494.55,39.25Z"/><path d="M318.75,61.42c-.39.35,0,2.19-.57,2.28-.33-.84-1.07-.88-1.42-1.71l.43-.66-.15-1C317.8,60.3,318.72,60,318.75,61.42Z"/><path d="M97.57,81.33l.43-.56-.43-.57c.07-.73.85-.75.86,0l-.39.69.11,1C97.81,82,97.64,81.78,97.57,81.33Z"/><path d="M476.4,30.14c.33.11.16.57,0,.57,0,.49.11.54.28.57C476.33,33,475.83,30.65,476.4,30.14Z"/><path d="M464.78,38.68c.18,1.53,1.09,1.59,1.13,3.41C465.23,41.55,464.24,39.91,464.78,38.68Z"/><path d="M458.54,33.55c-1,.34-1.37-.66-2-1.13,0-2.12.32-1.62,0-3.41.83-1.59.74,1.87,2,1.13l-.14.86.42-.29C458.94,32.08,458.31,32,458.54,33.55Z"/><path d="M453.72,23.89c-.7.09-.88-.9-1.42-1.14v1.14c-.09-1.9.23-7.87,2.27-7.39C455.21,19.82,453.34,21.09,453.72,23.89Z"/><path d="M448.9,22.18a5.83,5.83,0,0,1-.28-2.28c.71-.74.89,2.25,1.13.58C450.35,20.65,449.45,22.45,448.9,22.18Z"/><path d="M412.89,34.12c-.43-.14,0-.48,0-.57C413.55,31.36,413.22,34.24,412.89,34.12Z"/><path d="M405.51,33.55l.43-.28-.14-.85c.3-2.24.86.15,1.7,0C407.47,34.11,405.82,35.83,405.51,33.55Z"/><path d="M391.91,33c.58,1,.24,1.76.56,2.27,0,1.63-1.18,1.05-2,1.14.06-.66-.05-1-.28-1.14-.24-1.81.45-1.76.57-2.84-.23-1.62-.46-3.26-1.7-2.84.64,3.83.67,5-.85,7.39-.67-.18-.64-1.76-1.14-2.28-.95.52,0,1.28-.57,2.28-1.4-.73-.62-4.33-.56-6.83l.14-.85-.42-.28c.5-.78,1-3,1.7-1.71a8.7,8.7,0,0,1,1.42-3.41c.9.83,1.57,2.15,3.12,1.71l-.15.85.43-.28c-.07,1.85,1.1,1.2,1.14,2.84C393.4,31.44,392.5,31.9,391.91,33Z"/><path d="M365,63.13c-.19,1.2-1.76-1.09-.85-2.27C365,61.24,364.65,62.74,365,63.13Z"/><path d="M331.51,31.85c.32.11.15.57,0,.57-.05.48.11.54.28.57C331.43,34.74,330.94,32.36,331.51,31.85Z"/><path d="M319.88,26.17c-1.13.55-.85-1.71-2-1.15l-.43-.28L317,25c-.55-1.07-.13-2.68,0-4,1.86-1.75,2.39,3,3.12-.56a11.32,11.32,0,0,1,.85,2.27C321,24.51,320.22,25,319.88,26.17Z"/><path d="M316.2,41.52c.72-4.6-.49,3.76,0,0Z"/><path d="M308.54,58.58c-.05.65-.28.32-.28,0-1.3-.7-1.12,1.56-2.27,1.14a17.4,17.4,0,0,0,.57-4c.66,0,.83,1,1.7.57C308.62,57.73,308.11,58.09,308.54,58.58Z"/><path d="M283.59,52.89c0-1.41,1-.16,1.13,0C284.65,54.36,284.23,52.11,283.59,52.89Z"/><path d="M160.52,50.62c-.22.89-1.65.43-.85,2.27-.37-.58-1-.55-1.41-1.13,0-1-.21-1.48-.57-1.71.52-1.42,2-.88,1.7-4a1.27,1.27,0,0,1,1.42,1.14A17.2,17.2,0,0,0,160.52,50.62Z"/><path d="M157.83,52.61l.15-.28c0,1-.35,1.2-.29,2.27-.32-.17-1.08-2.7,0-2.27Z"/><path d="M108.35,19.34c-.46.16-.49-.54-.85-.57l-.14-.85-.43.28c-.05-.46-.28-.56-.28-1.14l.57-.92-.29-1.35c-.05-.49.12-.54.29-.57v.57h.28c.89-.08,1,1.46,1.13,2.84l-.38.69Z"/><path d="M92.47,19.9c.08-.85,1.22-2.39.57-2.84.38-1.28,1.14,1.46.85,3.42A1.2,1.2,0,0,1,92.47,19.9Z"/><path d="M83.12,75.07c.08-1.18.76.85.84-1.13.48.57.31,2.42.57,3.41C83.33,78.06,83.78,75.46,83.12,75.07Z"/><path d="M63.83,48.92l.43-.29-.14-.85h.28c.8-1.9-1.21-1.79-.85-4.56.74-.78,2.43.59,3.68.57.21,1.56-.56,1.15-.56,2.28.86.41.83-1,1.7-.57.77,1.94,0,1.94,1.13,2.28.86-.53,2-3.36,3.13-1.14l-.43.29.14.85h-.28c-.26.44.16,4.1-.85,4.55-.89.08-1-1.46-1.14-2.85h-.28c.29,1.91-.88.89-1.42,1.14-.38,1.13-.79,2.22-2,1.71,0-1,.35-1.21.29-2.28C65.51,50.67,64.57,50.44,63.83,48.92Z"/><path d="M70.92,42.09l.43-.29L71.21,41c2.15-2.07,3.25,1,5.1,0-.06-.46-.28-.57-.28-1.14l.42-.28.15-.85c.64-.16,1.06.13,1.13,1.13.78.25.27-2.12.85-2.27,1.6.39,1.4,4.4,2.83,5.12,1.38.49,1.32-1.92,2.27-2.28.38,1.86.53,5.75-.28,6.83-2.33.69-1.88-2.28-4.26-2.28-.31,1.14-.12,2.11-.56,4-.93-.62-1.47-2-2.55-2.28l-.14.29-.15.28c-1.58-1.37-3-3.06-5.1-3.42A4.44,4.44,0,0,0,70.92,42.09Z"/><path d="M70.5,41.23l-.15.86a3.42,3.42,0,0,1-3.68-2.28l.42-.28L67,38.68h1.42c.79-.57-.41-1.52.28-2.28,1.5,0,1.62,2.82,2.27,4.55Z"/><path d="M66.1,35.26v2.28l-.43-.28-.13.85c-1.56-.49-2.42-2.37-4-2.85l.14-.85-.43.28c-.15-2.2.72-2.34.85-4,2.65-1.34,2.68,2.6,4.82,2.28.12,1.08.61,1.42.57,2.84C66.84,36.07,66.9,34.79,66.1,35.26Z"/><path d="M58.16,23.89c.63-.32.41,1.09.85,1.13C59.1,26.05,57.91,25.06,58.16,23.89Z"/><path d="M50.22,27.87c-.48-.29-.13-3.63.85-2.85C51,26.37,50.09,26.08,50.22,27.87Z"/><path d="M41.71,22.75c-.82-1.83.91-2,1.43-2.85C43.57,20.44,42.45,22.67,41.71,22.75Z"/><path d="M36.9,45.5c-.09,1.18-.77-.84-.86,1.14-1-.68-.79-2-.28-3.42h1.42C37.22,44,36.22,45.34,36.9,45.5Z"/><path d="M34.06,42.66c1.34.88.38,2.82,0,0Z"/><path d="M28.1,58.58c.18,1.93,1.74,1.07,1.71,3.41H28.67C29,59.74,27.74,60.83,28.1,58.58Z"/><path d="M28.1,38.68c.45.24.25,1.78,1.14,1.13C29.06,41.81,28.05,40.32,28.1,38.68Z"/><path d="M23,52.89c-2-.82-.77-3.22,0,0Z"/><path d="M437,30.71c-1.31-2-1.34.28-2.55,1.14-1-1.5.24-1.91-.29-3.41l.43-.28-.14-.86c.26-1.55,1.43-1.3,2.27-1.7.39.91.24,2.93.85,3.41C437.46,29.75,437.06,29.9,437,30.71Z"/><path d="M209.86,47.21c-.14-3.13,2.09-1.49,2.84-2.85.59.52.86,1.68.85,3.42C212.14,46.81,210.89,48.07,209.86,47.21Z"/><path d="M200.79,31.85c-.35,1.72-1.08-.4-1.42-.57-1.24,2.27-.47,5.1-2.27,6.26a19.54,19.54,0,0,1-.56,5.12c-.39,1.11-1.28,1.62-1.7,2.84-1.15,3.27-.44,3.83-1.71,6.26-.94,1.8-1.3,1.31-2.83,2.27-.59-.15-.07-2.52-.85-2.27,1.34-.73.91-5,2.83-4.55,0-1.52-.11-3.25.29-4-.56-1.34-1.88-1.15-3.12-1.13l.14-.86-.43-.28V39.81l.43-.66-.14-1c1-.2,1.62-3.15,1.13-4.56-.89-.08-1,1.47-1.13,2.85l-.52-.28-.33.85c-1.13-1.77-.18-4.17-.57-7.39.9.48.88-.9,1.42-1.14.25-2.24,0-4.12.56-6.83.26-1.18,1.3-2.16,1.42-3.41.13-1.41-.48-2.63-.28-4,.42-2.91,1.34-6,3.12-6.82a6.78,6.78,0,0,0,2,7.39,2.61,2.61,0,0,0,.85-2.28c.68,1.1.87,3.2,2,3.42.3,1.6-.47,3.9,0,4l-.15.58-.14.56c-.07.62-.56.39-.56,1.14.59.17-.42,1.54.56,1.71.06-.46.29-.57.29-1.14h1.13c.31.14.19,1.13.57,1.14a4.49,4.49,0,0,0,.28-1.71l.43.28.14-.85C203.57,25.15,200.28,29.46,200.79,31.85Z"/><path d="M33.49,28.44l.43.28.14-.85c.69-1.66,1.32-3.41,2.55-4C37.33,26.85,34.23,33.35,33.49,28.44Z"/></svg>