<?xml version="1.0" encoding="UTF-8"?>
<!DOCTYPE svg PUBLIC "-//W3C//DTD SVG 1.1//EN" "http://www.w3.org/Graphics/SVG/1.1/DTD/svg11.dtd">
<svg xmlns="http://www.w3.org/2000/svg" version="1.1" width="133px" height="133px" style="shape-rendering:geometricPrecision; text-rendering:geometricPrecision; image-rendering:optimizeQuality; fill-rule:evenodd; clip-rule:evenodd" xmlns:xlink="http://www.w3.org/1999/xlink">
<g><path style="opacity:0.536" fill="#939393" d="M 55.5,10.5 C 57.5816,10.6243 59.0816,11.6243 60,13.5C 60.6667,47.8333 60.6667,82.1667 60,116.5C 57.3302,120.55 54.8302,120.383 52.5,116C 52.7908,81.0578 53.7908,45.8912 55.5,10.5 Z"/></g>
<g><path style="opacity:0.997" fill="#e1e1e1" d="M 43.5,110.5 C 43.5,84.8333 43.5,59.1667 43.5,33.5C 43.1725,28.456 43.5059,23.456 44.5,18.5C 46.4959,17.3904 48.3292,17.7237 50,19.5C 50.6667,49.8333 50.6667,80.1667 50,110.5C 47.7067,113.134 45.54,113.134 43.5,110.5 Z"/></g>
<g><path style="opacity:0.977" fill="#f7f7f7" d="M 69.5,30.5 C 69.5,53.5 69.5,76.5 69.5,99.5C 69.6716,100.492 69.3382,101.158 68.5,101.5C 66.8561,101.714 65.3561,101.38 64,100.5C 63.5,77.169 63.3334,53.8357 63.5,30.5C 63.8836,28.7074 65.0503,27.7074 67,27.5C 68.7491,27.7483 69.5824,28.7483 69.5,30.5 Z"/></g>
<g><path style="opacity:0.803" fill="#d5d5d5" d="M 34.5,32.5 C 34.3334,53.5026 34.5,74.5026 35,95.5C 36.3561,94.6198 37.8561,94.2865 39.5,94.5C 39.5,95.1667 39.5,95.8333 39.5,96.5C 38.0101,98.2798 36.0101,98.9465 33.5,98.5C 33.1669,94.332 33.1669,89.9987 33.5,85.5C 33.5,81.8333 33.5,78.1667 33.5,74.5C 33.8224,61.5869 33.4891,48.7536 32.5,36C 33.0848,34.6976 33.7515,33.531 34.5,32.5 Z"/></g>
<g><path style="opacity:0.967" fill="#f7f7f7" d="M 39.5,33.5 C 39.5,53.8333 39.5,74.1667 39.5,94.5C 37.8561,94.2865 36.3561,94.6198 35,95.5C 34.5,74.5026 34.3334,53.5026 34.5,32.5C 36.5857,30.9766 38.2524,31.31 39.5,33.5 Z"/></g>
<g><path style="opacity:0.985" fill="#f4f4f4" d="M 19.5,42.5 C 19.5,57.8333 19.5,73.1667 19.5,88.5C 17.8333,89.8333 16.1667,89.8333 14.5,88.5C 14.5,72.8333 14.5,57.1667 14.5,41.5C 16.4547,40.0698 18.1214,40.4031 19.5,42.5 Z"/></g>
<g><path style="opacity:0.575" fill="#a6a6a6" d="M 107.5,42.5 C 108.117,42.6107 108.617,42.944 109,43.5C 109.253,53.5178 109.753,63.1844 110.5,72.5C 109.833,72.5 109.5,72.8333 109.5,73.5C 108.788,63.296 108.121,52.9627 107.5,42.5 Z"/></g>
<g><path style="opacity:0.022" fill="#444444" d="M 39.5,33.5 C 40.4584,33.9528 41.2917,34.6195 42,35.5C 42.2784,34.5842 42.7784,33.9175 43.5,33.5C 43.5,59.1667 43.5,84.8333 43.5,110.5C 42.5139,106.03 42.1805,101.363 42.5,96.5C 41.5,96.5 40.5,96.5 39.5,96.5C 39.5,95.8333 39.5,95.1667 39.5,94.5C 39.5,74.1667 39.5,53.8333 39.5,33.5 Z"/></g>
<g><path style="opacity:0.99" fill="#dddddd" d="M 29.5,47.5 C 29.5,59.5 29.5,71.5 29.5,83.5C 26.5114,85.1693 24.1781,84.5026 22.5,81.5C 22.1782,70.9274 22.5116,60.2608 23.5,49.5C 23.8167,46.3449 25.4834,45.1782 28.5,46C 29.056,46.3826 29.3893,46.8826 29.5,47.5 Z"/></g>
<g><path style="opacity:0.324" fill="#6f6f6f" d="M 29.5,47.5 C 30.2485,48.531 30.9152,49.6976 31.5,51C 30.2828,61.1231 30.2828,70.9564 31.5,80.5C 31.5,81.1667 31.5,81.8333 31.5,82.5C 30.8333,82.8333 30.1667,83.1667 29.5,83.5C 29.5,71.5 29.5,59.5 29.5,47.5 Z"/></g>
<g><path style="opacity:0.956" fill="#f5f5f5" d="M 79.5,51.5 C 79.5,62.1667 79.5,72.8333 79.5,83.5C 79.6716,84.4916 79.3382,85.1583 78.5,85.5C 76.8561,85.7135 75.3561,85.3802 74,84.5C 73.5001,71.8377 73.3334,59.1711 73.5,46.5C 74.9179,44.6921 76.9179,44.0254 79.5,44.5C 80.3854,47.0662 80.3854,49.3995 79.5,51.5 Z"/></g>
<g><path style="opacity:0.458" fill="#939393" d="M 103.5,43.5 C 103.824,50.3543 103.491,57.021 102.5,63.5C 102.807,57.9066 102.473,52.4066 101.5,47C 102.085,45.6976 102.751,44.531 103.5,43.5 Z"/></g>
<g><path style="opacity:0.455" fill="#777777" d="M 19.5,42.5 C 20.9093,49.9528 21.5759,57.6194 21.5,65.5C 21.0807,70.9507 21.0807,76.2841 21.5,81.5C 20.9329,83.9823 20.2663,86.3157 19.5,88.5C 19.5,73.1667 19.5,57.8333 19.5,42.5 Z"/></g>
<g><path style="opacity:0.149" fill="#4b4b4b" d="M 69.5,30.5 C 70.1667,47.3381 70.8333,64.3381 71.5,81.5C 72.1667,69.6736 72.8333,58.0069 73.5,46.5C 73.3334,59.1711 73.5001,71.8377 74,84.5C 75.3561,85.3802 76.8561,85.7135 78.5,85.5C 75.6916,87.1671 73.525,86.5005 72,83.5C 70.9324,88.9058 70.0991,94.2392 69.5,99.5C 69.5,76.5 69.5,53.5 69.5,30.5 Z"/></g>
<g><path style="opacity:0.063" fill="#404040" d="M 79.5,51.5 C 80.1646,53.3691 80.8313,55.3691 81.5,57.5C 82.1835,57.1373 82.8501,56.8039 83.5,56.5C 83.2088,62.923 83.5422,69.2564 84.5,75.5C 83.0689,75.1193 82.2355,74.1193 82,72.5C 80.9859,76.2405 80.1526,79.9072 79.5,83.5C 79.5,72.8333 79.5,62.1667 79.5,51.5 Z"/></g>
<g><path style="opacity:0.979" fill="#eaeaea" d="M 88.5,54.5 C 89.3833,59.1031 89.7166,63.7697 89.5,68.5C 89.9411,70.5167 90.1078,72.5167 90,74.5C 88.3221,76.5532 86.4888,76.8866 84.5,75.5C 83.5422,69.2564 83.2088,62.923 83.5,56.5C 83.4142,55.5041 83.7476,54.6708 84.5,54C 86.0657,53.235 87.3991,53.4017 88.5,54.5 Z"/></g>
<g><path style="opacity:0.986" fill="#e8e8e8" d="M 9.5,55.5 C 9.5,62.1667 9.5,68.8333 9.5,75.5C 7.86529,76.8146 6.19863,76.8146 4.5,75.5C 3.33581,68.8582 3.16915,62.1915 4,55.5C 5.9901,52.9298 7.82343,52.9298 9.5,55.5 Z"/></g>
<g><path style="opacity:0.509" fill="#8d8d8d" d="M 9.5,55.5 C 10.2674,56.172 10.9341,57.0053 11.5,58C 10.1667,61.6667 10.1667,65.3333 11.5,69C 10.8828,71.277 10.2161,73.4437 9.5,75.5C 9.5,68.8333 9.5,62.1667 9.5,55.5 Z"/></g>
<g><path style="opacity:0.584" fill="#a7a7a7" d="M 14.5,41.5 C 14.5,57.1667 14.5,72.8333 14.5,88.5C 13.7109,88.2172 13.0442,87.7172 12.5,87C 12.7442,72.0486 13.4109,56.8819 14.5,41.5 Z"/></g>
<g><path style="opacity:1" fill="#e8e8e8" d="M 124.5,74.5 C 123.545,68.5907 123.211,62.5907 123.5,56.5C 125.223,55.193 127.057,55.193 129,56.5C 129.667,62.1667 129.667,67.8333 129,73.5C 127.532,75.0362 126.032,75.3696 124.5,74.5 Z"/></g>
<g><path style="opacity:0.02" fill="#404040" d="M 88.5,54.5 C 89.8048,56.3972 90.4714,58.7305 90.5,61.5C 90.4966,64.0254 90.1633,66.3587 89.5,68.5C 89.7166,63.7697 89.3833,59.1031 88.5,54.5 Z"/></g>
<g><path style="opacity:0.509" fill="#8b8b8b" d="M 123.5,56.5 C 123.211,62.5907 123.545,68.5907 124.5,74.5C 122.974,73.8953 121.974,72.7286 121.5,71C 122.833,66.6667 122.833,62.3333 121.5,58C 122.044,57.2828 122.711,56.7828 123.5,56.5 Z"/></g>
<g><path style="opacity:0.024" fill="#262626" d="M 33.5,74.5 C 33.5,78.1667 33.5,81.8333 33.5,85.5C 32.0937,85.0269 31.427,84.0269 31.5,82.5C 32.8333,81.8333 32.8333,81.1667 31.5,80.5C 32.0482,78.3736 32.7148,76.3736 33.5,74.5 Z"/></g>
<g><path style="opacity:1" fill="#eeeeee" d="M 107.5,42.5 C 108.121,52.9627 108.788,63.296 109.5,73.5C 110.209,74.404 111.209,74.7373 112.5,74.5C 113.492,67.0182 113.825,59.3516 113.5,51.5C 115.083,49.1368 116.916,49.1368 119,51.5C 119.667,64.8333 119.667,78.1667 119,91.5C 117.653,93.4661 116.153,93.7994 114.5,92.5C 113.759,89.5867 113.259,86.5867 113,83.5C 111.413,82.273 110.079,82.6063 109,84.5C 108.501,89.1548 108.334,93.8215 108.5,98.5C 108.167,98.5 107.833,98.5 107.5,98.5C 106.178,98.67 105.011,98.3366 104,97.5C 103.667,89.1667 103.333,80.8333 103,72.5C 102.023,71.2264 101.189,71.2264 100.5,72.5C 99.9527,74.7269 99.4527,77.3936 99,80.5C 97,81.8333 95,81.8333 93,80.5C 92.1677,70.1506 92.3344,59.8172 93.5,49.5C 95.1986,48.1854 96.8653,48.1854 98.5,49.5C 98.3342,54.1785 98.5008,58.8452 99,63.5C 99.3826,64.056 99.8826,64.3893 100.5,64.5C 101.167,64.1667 101.833,63.8333 102.5,63.5C 103.491,57.021 103.824,50.3543 103.5,43.5C 104.568,42.5655 105.901,42.2322 107.5,42.5 Z"/></g>
<g><path style="opacity:0.008" fill="#7f807f" d="M 110.5,72.5 C 111.833,73.1667 111.833,73.1667 110.5,72.5 Z"/></g>
<g><path style="opacity:0.436" fill="#919191" d="M 113.5,51.5 C 113.825,59.3516 113.492,67.0182 112.5,74.5C 112.714,72.8561 112.38,71.3561 111.5,70C 112.149,63.7341 112.815,57.5674 113.5,51.5 Z"/></g>
<g><path style="opacity:0.573" fill="#969696" d="M 98.5,49.5 C 99.2674,50.172 99.9341,51.0053 100.5,52C 99.5165,56.4055 99.5165,60.5721 100.5,64.5C 99.8826,64.3893 99.3826,64.056 99,63.5C 98.5008,58.8452 98.3342,54.1785 98.5,49.5 Z"/></g>
<g><path style="opacity:0.449" fill="#8a8a8a" d="M 100.5,72.5 C 101.189,71.2264 102.023,71.2264 103,72.5C 103.333,80.8333 103.667,89.1667 104,97.5C 105.011,98.3366 106.178,98.67 107.5,98.5C 104.69,100.115 102.69,99.2819 101.5,96C 102.329,89.4324 102.662,82.9324 102.5,76.5C 102.66,74.6455 101.993,73.3121 100.5,72.5 Z"/></g>
<g><path style="opacity:0.455" fill="#7b7b7b" d="M 114.5,92.5 C 113.127,92.6567 111.793,92.49 110.5,92C 112.229,90.2111 112.896,88.0444 112.5,85.5C 111.5,85.5 110.5,85.5 109.5,85.5C 109.43,89.3684 109.763,92.8684 110.5,96C 109.934,96.9947 109.267,97.828 108.5,98.5C 108.334,93.8215 108.501,89.1548 109,84.5C 110.079,82.6063 111.413,82.273 113,83.5C 113.259,86.5867 113.759,89.5867 114.5,92.5 Z"/></g>
<g><path style="opacity:0.096" fill="#454545" d="M 63.5,30.5 C 63.3334,53.8357 63.5,77.169 64,100.5C 65.3561,101.38 66.8561,101.714 68.5,101.5C 65.3724,103.231 63.0391,102.398 61.5,99C 62.8333,76.6667 62.8333,54.3333 61.5,32C 62.0442,31.2828 62.7109,30.7828 63.5,30.5 Z"/></g>
<g><path style="opacity:0.057" fill="#4a4a4a" d="M 118.5,98.5 C 116.958,97.6993 115.292,97.366 113.5,97.5C 116.013,94.8738 117.68,95.2071 118.5,98.5 Z"/></g>
<g><path style="opacity:0.984" fill="#d8d8d8" d="M 113.5,97.5 C 115.292,97.366 116.958,97.6993 118.5,98.5C 119.255,102.89 117.421,104.224 113,102.5C 112.22,100.613 112.387,98.9464 113.5,97.5 Z"/></g>
</svg>
